<?xml version="1.0" encoding="UTF-8" standalone="no"?>
<!DOCTYPE svg PUBLIC "-//W3C//DTD SVG 1.1//EN" "http://www.w3.org/Graphics/SVG/1.1/DTD/svg11.dtd">
<svg width="100%" height="100%" viewBox="0 0 302 302" version="1.1" xmlns="http://www.w3.org/2000/svg" xmlns:xlink="http://www.w3.org/1999/xlink" xml:space="preserve" xmlns:serif="http://www.serif.com/" style="fill-rule:evenodd;clip-rule:evenodd;stroke-linejoin:round;stroke-miterlimit:2;">
    <g transform="matrix(1,0,0,1,-149.232,-360.633)">
        <g id="Artboard2" transform="matrix(0.845196,0,0,9.03235,-730.157,-613.519)">
            <rect x="1040.46" y="107.851" width="356.764" height="33.384" style="fill:white;"/>
            <clipPath id="_clip1">
                <rect x="1040.46" y="107.851" width="356.764" height="33.384"/>
            </clipPath>
            <g clip-path="url(#_clip1)">
                <g transform="matrix(1,0,0,1.12214,0,-13.4055)">
                    <g transform="matrix(1.18316,0,0,0.0986623,863.891,103.035)">
                        <path d="M300,50.917C377.105,50.917 441.784,109.093 449.924,185.767L300,201.683L300,50.917Z" style="fill:rgb(208,208,208);fill-rule:nonzero;"/>
                    </g>
                    <g transform="matrix(0.144191,-0.0979269,1.17434,0.0120239,938.737,149.887)">
                        <path d="M300,50.917C377.105,50.917 441.784,109.093 449.924,185.767L300,201.683L300,50.917Z" style="fill:rgb(208,208,208);fill-rule:nonzero;"/>
                    </g>
                    <g transform="matrix(-1.14801,-0.0238686,0.286232,-0.0957316,1505.51,149.402)">
                        <path d="M300,50.917C377.105,50.917 441.784,109.093 449.924,185.767L300,201.683L300,50.917Z" style="fill:rgb(208,208,208);fill-rule:nonzero;"/>
                    </g>
                    <g transform="matrix(-0.424006,0.0921092,-1.10457,-0.0353574,1568.81,102.432)">
                        <path d="M300,50.917C377.105,50.917 441.784,109.093 449.924,185.767L300,201.683L300,50.917Z" style="fill:rgb(208,208,208);fill-rule:nonzero;"/>
                    </g>
                    <g transform="matrix(1.04467,0.0463191,-0.555459,0.0871136,1017.47,91.4687)">
                        <path d="M300,50.917C377.105,50.917 441.784,109.093 449.924,185.767L300,201.683L300,50.917Z" style="fill:rgb(208,208,208);fill-rule:nonzero;"/>
                    </g>
                </g>
                <g transform="matrix(1.18316,0,0,0.110713,863.891,102.215)">
                    <path d="M300,50.917C377.105,50.917 441.784,109.093 449.924,185.767L300,201.683L300,50.917Z" style="fill:rgb(255,128,128);fill-rule:nonzero;"/>
                </g>
                <g transform="matrix(1.18316,0,0,0.110713,863.891,102.215)">
                    <path d="M449.924,185.767C451.841,203.826 450.48,222.083 445.906,239.658L300,201.683L449.924,185.767Z" style="fill:rgb(255,191,128);fill-rule:nonzero;"/>
                </g>
                <g transform="matrix(1.18316,0,0,0.110713,863.891,102.215)">
                    <path d="M445.906,239.658C441.532,256.465 434.286,272.389 424.49,286.729L300,201.683L445.906,239.658Z" style="fill:rgb(128,255,147);fill-rule:nonzero;"/>
                </g>
                <g transform="matrix(1.18316,0,0,0.110713,863.891,102.215)">
                    <path d="M424.49,286.729C414.694,301.069 402.493,313.609 388.427,323.795L300,201.683L424.49,286.729Z" style="fill:rgb(128,212,255);fill-rule:nonzero;"/>
                </g>
                <g transform="matrix(1.18316,0,0,0.110713,863.891,102.215)">
                    <path d="M388.427,323.795C376.608,332.354 363.608,339.152 349.835,343.976L300,201.683L388.427,323.795Z" style="fill:rgb(128,128,255);fill-rule:nonzero;"/>
                </g>
                <g transform="matrix(1.18316,0,0,0.110713,863.891,102.215)">
                    <path d="M349.835,343.976C337.182,348.407 323.995,351.131 310.622,352.075L300,201.683L349.835,343.976Z" style="fill:rgb(255,128,255);fill-rule:nonzero;"/>
                </g>
                <g transform="matrix(1.18316,0,0,0.110713,863.891,102.215)">
                    <path d="M310.622,352.075C297.643,352.992 284.6,352.225 271.819,349.793L300,201.683L310.622,352.075Z" style="fill:rgb(255,128,191);fill-rule:nonzero;"/>
                </g>
                <g transform="matrix(1.18316,0,0,0.110713,845.129,85.5246)">
                    <g transform="matrix(13,0,0,13,346.598,289.251)">
                        <path d="M0.262,0.018C0.334,0.018 0.391,-0.002 0.431,-0.042C0.471,-0.082 0.491,-0.138 0.491,-0.209L0.491,-0.705L0.365,-0.705L0.365,-0.21C0.365,-0.172 0.356,-0.143 0.339,-0.123C0.321,-0.103 0.295,-0.093 0.261,-0.093C0.24,-0.093 0.223,-0.097 0.209,-0.105C0.194,-0.113 0.183,-0.125 0.176,-0.139C0.168,-0.153 0.163,-0.169 0.162,-0.187L0.162,-0.191L0.039,-0.191L0.039,-0.186C0.041,-0.146 0.051,-0.11 0.069,-0.08C0.087,-0.049 0.112,-0.025 0.145,-0.008C0.177,0.009 0.217,0.018 0.262,0.018Z" style="fill-rule:nonzero;"/>
                    </g>
                    <g transform="matrix(13,0,0,13,353.932,289.251)">
                        <path d="M0.303,0.011C0.339,0.011 0.371,0.006 0.398,-0.003C0.425,-0.012 0.448,-0.025 0.467,-0.04C0.486,-0.055 0.502,-0.071 0.513,-0.089C0.524,-0.107 0.532,-0.124 0.536,-0.141L0.537,-0.146L0.422,-0.146L0.42,-0.143C0.417,-0.134 0.41,-0.126 0.4,-0.117C0.39,-0.108 0.377,-0.1 0.362,-0.094C0.346,-0.088 0.327,-0.085 0.305,-0.085C0.277,-0.085 0.253,-0.091 0.233,-0.103C0.212,-0.116 0.197,-0.134 0.186,-0.157C0.175,-0.18 0.169,-0.208 0.169,-0.241L0.169,-0.29C0.169,-0.324 0.175,-0.353 0.186,-0.377C0.197,-0.4 0.212,-0.418 0.232,-0.431C0.251,-0.443 0.273,-0.449 0.298,-0.449C0.323,-0.449 0.345,-0.443 0.364,-0.431C0.383,-0.419 0.398,-0.402 0.409,-0.378C0.42,-0.355 0.425,-0.325 0.425,-0.29L0.425,-0.242L0.483,-0.318L0.109,-0.318L0.109,-0.236L0.542,-0.236L0.542,-0.276C0.542,-0.33 0.532,-0.377 0.513,-0.417C0.493,-0.457 0.465,-0.488 0.428,-0.511C0.391,-0.533 0.348,-0.544 0.297,-0.544C0.246,-0.544 0.202,-0.533 0.165,-0.51C0.128,-0.486 0.099,-0.454 0.078,-0.413C0.058,-0.371 0.048,-0.322 0.048,-0.266L0.048,-0.265C0.048,-0.209 0.058,-0.16 0.078,-0.119C0.099,-0.077 0.128,-0.045 0.166,-0.023C0.204,-0.001 0.25,0.011 0.303,0.011Z" style="fill-rule:nonzero;"/>
                    </g>
                    <g transform="matrix(13,0,0,13,361.488,289.251)">
                        <path d="M0.074,-0L0.196,-0L0.196,-0.31C0.196,-0.336 0.201,-0.358 0.212,-0.376C0.224,-0.395 0.239,-0.409 0.259,-0.419C0.279,-0.43 0.303,-0.435 0.33,-0.435C0.341,-0.435 0.351,-0.434 0.361,-0.433C0.371,-0.432 0.381,-0.43 0.391,-0.428L0.391,-0.537C0.385,-0.538 0.377,-0.54 0.368,-0.541C0.36,-0.542 0.351,-0.542 0.341,-0.542C0.306,-0.542 0.277,-0.534 0.253,-0.519C0.23,-0.503 0.213,-0.48 0.204,-0.452L0.196,-0.452L0.196,-0.533L0.074,-0.533L0.074,-0Z" style="fill-rule:nonzero;"/>
                    </g>
                    <g transform="matrix(13,0,0,13,366.39,289.251)">
                        <path d="M0.074,-0L0.196,-0L0.196,-0.31C0.196,-0.336 0.201,-0.358 0.212,-0.376C0.224,-0.395 0.239,-0.409 0.259,-0.419C0.279,-0.43 0.303,-0.435 0.33,-0.435C0.341,-0.435 0.351,-0.434 0.361,-0.433C0.371,-0.432 0.381,-0.43 0.391,-0.428L0.391,-0.537C0.385,-0.538 0.377,-0.54 0.368,-0.541C0.36,-0.542 0.351,-0.542 0.341,-0.542C0.306,-0.542 0.277,-0.534 0.253,-0.519C0.23,-0.503 0.213,-0.48 0.204,-0.452L0.196,-0.452L0.196,-0.533L0.074,-0.533L0.074,-0Z" style="fill-rule:nonzero;"/>
                    </g>
                    <g transform="matrix(13,0,0,13,371.292,289.251)">
                        <path d="M0.131,0.188C0.171,0.188 0.204,0.182 0.232,0.171C0.26,0.161 0.284,0.142 0.304,0.117C0.323,0.091 0.341,0.056 0.356,0.012L0.548,-0.533L0.42,-0.533L0.279,-0.061L0.311,-0.117L0.27,-0.117L0.303,-0.061L0.162,-0.533L0.029,-0.533L0.22,0L0.214,0.025C0.207,0.049 0.196,0.067 0.181,0.078C0.166,0.088 0.146,0.094 0.121,0.094C0.115,0.094 0.108,0.094 0.102,0.094C0.096,0.093 0.09,0.093 0.085,0.092L0.085,0.186C0.092,0.186 0.1,0.187 0.108,0.187C0.116,0.187 0.124,0.188 0.131,0.188Z" style="fill-rule:nonzero;"/>
                    </g>
                    <g transform="matrix(13,0,0,13,382.075,289.251)">
                        <path d="M0.087,-0L0.213,-0L0.213,-0.265L0.353,-0.265L0.491,-0L0.635,-0L0.481,-0.284C0.523,-0.3 0.555,-0.325 0.579,-0.361C0.602,-0.397 0.613,-0.438 0.613,-0.485L0.613,-0.486C0.613,-0.531 0.604,-0.569 0.585,-0.602C0.565,-0.635 0.537,-0.66 0.501,-0.678C0.465,-0.696 0.422,-0.705 0.371,-0.705L0.087,-0.705L0.087,-0ZM0.213,-0.362L0.213,-0.603L0.356,-0.603C0.396,-0.603 0.427,-0.592 0.45,-0.571C0.473,-0.549 0.485,-0.52 0.485,-0.483L0.485,-0.482C0.485,-0.444 0.474,-0.415 0.451,-0.394C0.429,-0.373 0.398,-0.362 0.358,-0.362L0.213,-0.362Z" style="fill-rule:nonzero;"/>
                    </g>
                    <g transform="matrix(13,0,0,13,390.76,289.251)">
                        <path d="M0.075,-0L0.197,-0L0.197,-0.533L0.075,-0.533L0.075,-0ZM0.137,-0.623C0.157,-0.623 0.174,-0.63 0.188,-0.644C0.202,-0.658 0.209,-0.675 0.209,-0.695C0.209,-0.715 0.202,-0.731 0.188,-0.745C0.174,-0.759 0.157,-0.766 0.137,-0.766C0.117,-0.766 0.1,-0.759 0.086,-0.745C0.071,-0.731 0.064,-0.715 0.064,-0.695C0.064,-0.675 0.071,-0.658 0.086,-0.644C0.1,-0.63 0.117,-0.623 0.137,-0.623Z" style="fill-rule:nonzero;"/>
                    </g>
                    <g transform="matrix(13,0,0,13,394.336,289.251)">
                        <path d="M0.303,0.011C0.348,0.011 0.387,0.003 0.419,-0.012C0.452,-0.027 0.478,-0.049 0.497,-0.076C0.516,-0.103 0.529,-0.135 0.535,-0.171L0.535,-0.175L0.421,-0.175L0.42,-0.173C0.412,-0.145 0.399,-0.124 0.38,-0.109C0.36,-0.095 0.335,-0.088 0.303,-0.088C0.276,-0.088 0.252,-0.095 0.232,-0.109C0.213,-0.123 0.198,-0.144 0.187,-0.171C0.177,-0.198 0.171,-0.23 0.171,-0.268L0.171,-0.269C0.171,-0.306 0.177,-0.338 0.187,-0.364C0.197,-0.391 0.212,-0.411 0.232,-0.425C0.252,-0.439 0.275,-0.446 0.303,-0.446C0.336,-0.446 0.363,-0.437 0.383,-0.421C0.402,-0.404 0.415,-0.383 0.42,-0.357L0.421,-0.356L0.536,-0.356L0.535,-0.358C0.531,-0.394 0.519,-0.427 0.5,-0.455C0.48,-0.483 0.454,-0.505 0.421,-0.52C0.388,-0.536 0.348,-0.544 0.303,-0.544C0.249,-0.544 0.203,-0.533 0.165,-0.511C0.127,-0.489 0.098,-0.458 0.078,-0.416C0.058,-0.375 0.048,-0.326 0.048,-0.269L0.048,-0.268C0.048,-0.21 0.058,-0.16 0.078,-0.118C0.098,-0.077 0.128,-0.045 0.166,-0.023C0.204,-0 0.25,0.011 0.303,0.011Z" style="fill-rule:nonzero;"/>
                    </g>
                    <g transform="matrix(13,0,0,13,401.746,289.251)">
                        <path d="M0.303,0.011C0.339,0.011 0.371,0.006 0.398,-0.003C0.425,-0.012 0.448,-0.025 0.467,-0.04C0.486,-0.055 0.502,-0.071 0.513,-0.089C0.524,-0.107 0.532,-0.124 0.536,-0.141L0.537,-0.146L0.422,-0.146L0.42,-0.143C0.417,-0.134 0.41,-0.126 0.4,-0.117C0.39,-0.108 0.377,-0.1 0.362,-0.094C0.346,-0.088 0.327,-0.085 0.305,-0.085C0.277,-0.085 0.253,-0.091 0.233,-0.103C0.212,-0.116 0.197,-0.134 0.186,-0.157C0.175,-0.18 0.169,-0.208 0.169,-0.241L0.169,-0.29C0.169,-0.324 0.175,-0.353 0.186,-0.377C0.197,-0.4 0.212,-0.418 0.232,-0.431C0.251,-0.443 0.273,-0.449 0.298,-0.449C0.323,-0.449 0.345,-0.443 0.364,-0.431C0.383,-0.419 0.398,-0.402 0.409,-0.378C0.42,-0.355 0.425,-0.325 0.425,-0.29L0.425,-0.242L0.483,-0.318L0.109,-0.318L0.109,-0.236L0.542,-0.236L0.542,-0.276C0.542,-0.33 0.532,-0.377 0.513,-0.417C0.493,-0.457 0.465,-0.488 0.428,-0.511C0.391,-0.533 0.348,-0.544 0.297,-0.544C0.246,-0.544 0.202,-0.533 0.165,-0.51C0.128,-0.486 0.099,-0.454 0.078,-0.413C0.058,-0.371 0.048,-0.322 0.048,-0.266L0.048,-0.265C0.048,-0.209 0.058,-0.16 0.078,-0.119C0.099,-0.077 0.128,-0.045 0.166,-0.023C0.204,-0.001 0.25,0.011 0.303,0.011Z" style="fill-rule:nonzero;"/>
                    </g>
                </g>
                <g transform="matrix(1.18316,0,0,0.110713,677.407,93.04)">
                    <g transform="matrix(13,0,0,13,346.598,289.251)">
                        <path d="M0.337,0.014C0.391,0.014 0.439,0.006 0.48,-0.012C0.521,-0.029 0.554,-0.053 0.577,-0.084C0.6,-0.115 0.612,-0.15 0.612,-0.191L0.612,-0.192C0.612,-0.222 0.605,-0.249 0.591,-0.274C0.578,-0.298 0.559,-0.319 0.535,-0.336C0.511,-0.353 0.484,-0.364 0.452,-0.371L0.452,-0.373C0.492,-0.384 0.525,-0.404 0.549,-0.431C0.574,-0.459 0.586,-0.492 0.586,-0.53L0.586,-0.531C0.586,-0.567 0.576,-0.599 0.554,-0.627C0.533,-0.656 0.504,-0.678 0.466,-0.694C0.429,-0.711 0.386,-0.719 0.337,-0.719C0.288,-0.719 0.245,-0.711 0.208,-0.694C0.17,-0.678 0.141,-0.656 0.119,-0.627C0.098,-0.599 0.087,-0.567 0.087,-0.531L0.087,-0.53C0.087,-0.492 0.1,-0.459 0.124,-0.431C0.149,-0.404 0.181,-0.384 0.221,-0.373L0.221,-0.371C0.19,-0.364 0.163,-0.353 0.139,-0.336C0.115,-0.319 0.096,-0.298 0.082,-0.274C0.069,-0.249 0.062,-0.222 0.062,-0.192L0.062,-0.191C0.062,-0.15 0.073,-0.115 0.097,-0.084C0.12,-0.053 0.153,-0.029 0.194,-0.012C0.235,0.006 0.283,0.014 0.337,0.014ZM0.337,-0.082C0.309,-0.082 0.284,-0.087 0.262,-0.097C0.24,-0.107 0.223,-0.121 0.211,-0.138C0.198,-0.156 0.192,-0.176 0.192,-0.199L0.192,-0.2C0.192,-0.223 0.198,-0.243 0.21,-0.26C0.223,-0.278 0.24,-0.292 0.262,-0.302C0.283,-0.312 0.308,-0.318 0.337,-0.318C0.365,-0.318 0.39,-0.312 0.412,-0.302C0.434,-0.292 0.451,-0.278 0.463,-0.26C0.475,-0.243 0.482,-0.223 0.482,-0.2L0.482,-0.199C0.482,-0.176 0.475,-0.156 0.463,-0.138C0.45,-0.121 0.433,-0.107 0.412,-0.097C0.39,-0.087 0.365,-0.082 0.337,-0.082ZM0.337,-0.414C0.312,-0.414 0.29,-0.418 0.272,-0.427C0.253,-0.436 0.238,-0.448 0.228,-0.464C0.217,-0.48 0.212,-0.498 0.212,-0.518L0.212,-0.519C0.212,-0.54 0.217,-0.558 0.228,-0.574C0.238,-0.589 0.253,-0.602 0.272,-0.61C0.291,-0.619 0.312,-0.624 0.337,-0.624C0.361,-0.624 0.383,-0.619 0.402,-0.61C0.421,-0.602 0.435,-0.589 0.446,-0.574C0.456,-0.558 0.462,-0.54 0.462,-0.519L0.462,-0.518C0.462,-0.498 0.457,-0.48 0.446,-0.464C0.435,-0.448 0.421,-0.436 0.402,-0.427C0.383,-0.418 0.362,-0.414 0.337,-0.414Z" style="fill-rule:nonzero;"/>
                    </g>
                    <g transform="matrix(13,0,0,13,355.29,289.251)">
                        <path d="M0.328,0.018C0.379,0.018 0.424,0.007 0.463,-0.014C0.502,-0.034 0.532,-0.063 0.554,-0.1C0.576,-0.137 0.587,-0.18 0.587,-0.229L0.587,-0.23C0.587,-0.275 0.578,-0.315 0.558,-0.35C0.539,-0.385 0.512,-0.412 0.478,-0.432C0.444,-0.452 0.405,-0.462 0.361,-0.462C0.328,-0.462 0.298,-0.456 0.272,-0.443C0.245,-0.429 0.225,-0.411 0.21,-0.387L0.202,-0.387L0.222,-0.601L0.546,-0.601L0.546,-0.705L0.124,-0.705L0.089,-0.292L0.197,-0.292C0.202,-0.3 0.206,-0.307 0.212,-0.314C0.217,-0.321 0.223,-0.327 0.23,-0.332C0.243,-0.344 0.258,-0.352 0.275,-0.358C0.291,-0.364 0.31,-0.367 0.33,-0.367C0.356,-0.367 0.38,-0.361 0.401,-0.349C0.422,-0.337 0.438,-0.321 0.45,-0.3C0.462,-0.279 0.468,-0.255 0.468,-0.228L0.468,-0.227C0.468,-0.199 0.462,-0.175 0.45,-0.153C0.439,-0.132 0.422,-0.116 0.401,-0.104C0.38,-0.091 0.356,-0.085 0.329,-0.085C0.305,-0.085 0.283,-0.09 0.264,-0.099C0.244,-0.108 0.229,-0.121 0.217,-0.137C0.205,-0.152 0.197,-0.17 0.194,-0.189L0.193,-0.193L0.077,-0.193L0.078,-0.186C0.081,-0.148 0.093,-0.113 0.115,-0.082C0.136,-0.051 0.165,-0.027 0.202,-0.009C0.238,0.009 0.28,0.018 0.328,0.018Z" style="fill-rule:nonzero;"/>
                    </g>
                    <g transform="matrix(13,0,0,13,367.355,289.251)">
                        <path d="M0.305,0.011C0.358,0.011 0.404,-0 0.442,-0.023C0.48,-0.045 0.51,-0.077 0.53,-0.118C0.551,-0.16 0.561,-0.209 0.561,-0.266L0.561,-0.267C0.561,-0.325 0.551,-0.374 0.53,-0.415C0.509,-0.457 0.48,-0.489 0.442,-0.511C0.403,-0.533 0.358,-0.544 0.305,-0.544C0.252,-0.544 0.206,-0.533 0.168,-0.511C0.129,-0.488 0.1,-0.457 0.079,-0.415C0.058,-0.374 0.048,-0.325 0.048,-0.267L0.048,-0.266C0.048,-0.209 0.058,-0.16 0.079,-0.118C0.099,-0.077 0.129,-0.045 0.167,-0.023C0.206,-0 0.251,0.011 0.305,0.011ZM0.305,-0.088C0.276,-0.088 0.252,-0.095 0.233,-0.109C0.213,-0.123 0.198,-0.143 0.188,-0.17C0.177,-0.197 0.172,-0.229 0.172,-0.266L0.172,-0.267C0.172,-0.305 0.177,-0.337 0.188,-0.363C0.198,-0.39 0.213,-0.41 0.233,-0.424C0.253,-0.439 0.276,-0.446 0.305,-0.446C0.333,-0.446 0.357,-0.439 0.376,-0.424C0.396,-0.41 0.411,-0.39 0.421,-0.363C0.432,-0.337 0.437,-0.305 0.437,-0.267L0.437,-0.266C0.437,-0.229 0.432,-0.197 0.421,-0.17C0.411,-0.144 0.396,-0.123 0.376,-0.109C0.357,-0.095 0.333,-0.088 0.305,-0.088Z" style="fill-rule:nonzero;"/>
                    </g>
                    <g transform="matrix(13,0,0,13,375.152,289.251)">
                        <path d="M0.284,0.003C0.296,0.003 0.307,0.002 0.318,0.001C0.329,-0 0.339,-0.001 0.347,-0.003L0.347,-0.097C0.34,-0.096 0.334,-0.095 0.328,-0.095C0.322,-0.095 0.315,-0.094 0.306,-0.094C0.281,-0.094 0.263,-0.101 0.252,-0.113C0.24,-0.125 0.235,-0.144 0.235,-0.171L0.235,-0.44L0.347,-0.44L0.347,-0.533L0.235,-0.533L0.235,-0.665L0.111,-0.665L0.111,-0.533L0.028,-0.533L0.028,-0.44L0.111,-0.44L0.111,-0.142C0.111,-0.09 0.125,-0.054 0.152,-0.031C0.179,-0.009 0.223,0.003 0.284,0.003Z" style="fill-rule:nonzero;"/>
                    </g>
                    <g transform="matrix(13,0,0,13,379.965,289.251)">
                        <path d="M0.079,-0L0.2,-0L0.2,-0.311C0.2,-0.338 0.205,-0.361 0.215,-0.38C0.224,-0.4 0.238,-0.415 0.255,-0.426C0.273,-0.436 0.294,-0.442 0.318,-0.442C0.355,-0.442 0.382,-0.431 0.399,-0.411C0.417,-0.39 0.425,-0.359 0.425,-0.317L0.425,-0L0.547,-0L0.547,-0.345C0.547,-0.388 0.54,-0.424 0.526,-0.453C0.511,-0.483 0.491,-0.505 0.463,-0.521C0.436,-0.536 0.403,-0.544 0.363,-0.544C0.324,-0.544 0.292,-0.536 0.267,-0.52C0.241,-0.503 0.222,-0.481 0.209,-0.452L0.2,-0.452L0.2,-0.74L0.079,-0.74L0.079,-0Z" style="fill-rule:nonzero;"/>
                    </g>
                    <g transform="matrix(13,0,0,13,387.87,289.251)">
                        <path d="M0.303,0.011C0.339,0.011 0.371,0.006 0.398,-0.003C0.425,-0.012 0.448,-0.025 0.467,-0.04C0.486,-0.055 0.502,-0.071 0.513,-0.089C0.524,-0.107 0.532,-0.124 0.536,-0.141L0.537,-0.146L0.422,-0.146L0.42,-0.143C0.417,-0.134 0.41,-0.126 0.4,-0.117C0.39,-0.108 0.377,-0.1 0.362,-0.094C0.346,-0.088 0.327,-0.085 0.305,-0.085C0.277,-0.085 0.253,-0.091 0.233,-0.103C0.212,-0.116 0.197,-0.134 0.186,-0.157C0.175,-0.18 0.169,-0.208 0.169,-0.241L0.169,-0.29C0.169,-0.324 0.175,-0.353 0.186,-0.377C0.197,-0.4 0.212,-0.418 0.232,-0.431C0.251,-0.443 0.273,-0.449 0.298,-0.449C0.323,-0.449 0.345,-0.443 0.364,-0.431C0.383,-0.419 0.398,-0.402 0.409,-0.378C0.42,-0.355 0.425,-0.325 0.425,-0.29L0.425,-0.242L0.483,-0.318L0.109,-0.318L0.109,-0.236L0.542,-0.236L0.542,-0.276C0.542,-0.33 0.532,-0.377 0.513,-0.417C0.493,-0.457 0.465,-0.488 0.428,-0.511C0.391,-0.533 0.348,-0.544 0.297,-0.544C0.246,-0.544 0.202,-0.533 0.165,-0.51C0.128,-0.486 0.099,-0.454 0.078,-0.413C0.058,-0.371 0.048,-0.322 0.048,-0.266L0.048,-0.265C0.048,-0.209 0.058,-0.16 0.078,-0.119C0.099,-0.077 0.128,-0.045 0.166,-0.023C0.204,-0.001 0.25,0.011 0.303,0.011Z" style="fill-rule:nonzero;"/>
                    </g>
                    <g transform="matrix(13,0,0,13,395.426,289.251)">
                        <path d="M0.074,-0L0.196,-0L0.196,-0.31C0.196,-0.336 0.201,-0.358 0.212,-0.376C0.224,-0.395 0.239,-0.409 0.259,-0.419C0.279,-0.43 0.303,-0.435 0.33,-0.435C0.341,-0.435 0.351,-0.434 0.361,-0.433C0.371,-0.432 0.381,-0.43 0.391,-0.428L0.391,-0.537C0.385,-0.538 0.377,-0.54 0.368,-0.541C0.36,-0.542 0.351,-0.542 0.341,-0.542C0.306,-0.542 0.277,-0.534 0.253,-0.519C0.23,-0.503 0.213,-0.48 0.204,-0.452L0.196,-0.452L0.196,-0.533L0.074,-0.533L0.074,-0Z" style="fill-rule:nonzero;"/>
                    </g>
                    <g transform="matrix(13,0,0,13,400.328,289.251)">
                        <path d="M0.276,0.011C0.32,0.011 0.358,0.004 0.393,-0.01C0.427,-0.024 0.453,-0.044 0.473,-0.07C0.493,-0.095 0.502,-0.125 0.502,-0.159L0.502,-0.16C0.502,-0.199 0.49,-0.23 0.465,-0.253C0.44,-0.276 0.401,-0.293 0.349,-0.305L0.262,-0.324C0.233,-0.331 0.213,-0.339 0.201,-0.349C0.188,-0.359 0.182,-0.372 0.182,-0.388L0.182,-0.388C0.182,-0.402 0.186,-0.413 0.194,-0.423C0.202,-0.433 0.213,-0.441 0.227,-0.446C0.241,-0.452 0.257,-0.454 0.275,-0.454C0.304,-0.454 0.327,-0.449 0.344,-0.437C0.361,-0.425 0.372,-0.41 0.376,-0.393L0.377,-0.392L0.491,-0.392L0.491,-0.393C0.489,-0.422 0.478,-0.448 0.461,-0.471C0.443,-0.493 0.419,-0.511 0.388,-0.524C0.356,-0.538 0.319,-0.544 0.276,-0.544C0.234,-0.544 0.197,-0.537 0.165,-0.524C0.132,-0.51 0.107,-0.491 0.089,-0.466C0.071,-0.442 0.062,-0.414 0.062,-0.381L0.062,-0.381C0.062,-0.342 0.074,-0.31 0.099,-0.285C0.124,-0.261 0.161,-0.243 0.212,-0.232L0.298,-0.213C0.328,-0.206 0.349,-0.197 0.361,-0.187C0.374,-0.176 0.38,-0.163 0.38,-0.147L0.38,-0.146C0.38,-0.133 0.376,-0.121 0.367,-0.111C0.358,-0.101 0.346,-0.093 0.331,-0.088C0.316,-0.082 0.298,-0.079 0.278,-0.079C0.248,-0.079 0.224,-0.085 0.206,-0.097C0.188,-0.108 0.175,-0.123 0.169,-0.142L0.169,-0.143L0.048,-0.143L0.048,-0.142C0.051,-0.112 0.063,-0.085 0.081,-0.062C0.1,-0.04 0.126,-0.022 0.159,-0.009C0.192,0.004 0.231,0.011 0.276,0.011Z" style="fill-rule:nonzero;"/>
                    </g>
                </g>
                <g transform="matrix(1.1817,0.00549543,-0.058728,0.110577,912.191,91.6483)">
                    <g transform="matrix(13,0,0,13,346.598,289.251)">
                        <path d="M0.262,0.018C0.334,0.018 0.391,-0.002 0.431,-0.042C0.471,-0.082 0.491,-0.138 0.491,-0.209L0.491,-0.705L0.365,-0.705L0.365,-0.21C0.365,-0.172 0.356,-0.143 0.339,-0.123C0.321,-0.103 0.295,-0.093 0.261,-0.093C0.24,-0.093 0.223,-0.097 0.209,-0.105C0.194,-0.113 0.183,-0.125 0.176,-0.139C0.168,-0.153 0.163,-0.169 0.162,-0.187L0.162,-0.191L0.039,-0.191L0.039,-0.186C0.041,-0.146 0.051,-0.11 0.069,-0.08C0.087,-0.049 0.112,-0.025 0.145,-0.008C0.177,0.009 0.217,0.018 0.262,0.018Z" style="fill-rule:nonzero;"/>
                    </g>
                    <g transform="matrix(13,0,0,13,353.932,289.251)">
                        <path d="M0.305,0.011C0.358,0.011 0.404,-0 0.442,-0.023C0.48,-0.045 0.51,-0.077 0.53,-0.118C0.551,-0.16 0.561,-0.209 0.561,-0.266L0.561,-0.267C0.561,-0.325 0.551,-0.374 0.53,-0.415C0.509,-0.457 0.48,-0.489 0.442,-0.511C0.403,-0.533 0.358,-0.544 0.305,-0.544C0.252,-0.544 0.206,-0.533 0.168,-0.511C0.129,-0.488 0.1,-0.457 0.079,-0.415C0.058,-0.374 0.048,-0.325 0.048,-0.267L0.048,-0.266C0.048,-0.209 0.058,-0.16 0.079,-0.118C0.099,-0.077 0.129,-0.045 0.167,-0.023C0.206,-0 0.251,0.011 0.305,0.011ZM0.305,-0.088C0.276,-0.088 0.252,-0.095 0.233,-0.109C0.213,-0.123 0.198,-0.143 0.188,-0.17C0.177,-0.197 0.172,-0.229 0.172,-0.266L0.172,-0.267C0.172,-0.305 0.177,-0.337 0.188,-0.363C0.198,-0.39 0.213,-0.41 0.233,-0.424C0.253,-0.439 0.276,-0.446 0.305,-0.446C0.333,-0.446 0.357,-0.439 0.376,-0.424C0.396,-0.41 0.411,-0.39 0.421,-0.363C0.432,-0.337 0.437,-0.305 0.437,-0.267L0.437,-0.266C0.437,-0.229 0.432,-0.197 0.421,-0.17C0.411,-0.144 0.396,-0.123 0.376,-0.109C0.357,-0.095 0.333,-0.088 0.305,-0.088Z" style="fill-rule:nonzero;"/>
                    </g>
                    <g transform="matrix(13,0,0,13,361.729,289.251)">
                        <path d="M0.079,-0L0.2,-0L0.2,-0.311C0.2,-0.338 0.205,-0.361 0.215,-0.38C0.224,-0.4 0.238,-0.415 0.255,-0.426C0.273,-0.436 0.294,-0.442 0.318,-0.442C0.355,-0.442 0.382,-0.431 0.399,-0.411C0.417,-0.39 0.425,-0.359 0.425,-0.317L0.425,-0L0.547,-0L0.547,-0.345C0.547,-0.388 0.54,-0.424 0.526,-0.453C0.511,-0.483 0.491,-0.505 0.463,-0.521C0.436,-0.536 0.403,-0.544 0.363,-0.544C0.324,-0.544 0.292,-0.536 0.267,-0.52C0.241,-0.503 0.222,-0.481 0.209,-0.452L0.2,-0.452L0.2,-0.74L0.079,-0.74L0.079,-0Z" style="fill-rule:nonzero;"/>
                    </g>
                    <g transform="matrix(13,0,0,13,369.634,289.251)">
                        <path d="M0.074,-0L0.196,-0L0.196,-0.311C0.196,-0.338 0.2,-0.361 0.21,-0.38C0.219,-0.4 0.233,-0.415 0.25,-0.426C0.268,-0.436 0.289,-0.442 0.313,-0.442C0.35,-0.442 0.377,-0.431 0.394,-0.411C0.412,-0.39 0.42,-0.359 0.42,-0.317L0.42,-0L0.542,-0L0.542,-0.345C0.542,-0.409 0.526,-0.458 0.495,-0.492C0.463,-0.527 0.418,-0.544 0.358,-0.544C0.319,-0.544 0.287,-0.536 0.262,-0.52C0.236,-0.503 0.217,-0.481 0.204,-0.452L0.196,-0.452L0.196,-0.533L0.074,-0.533L0.074,-0Z" style="fill-rule:nonzero;"/>
                    </g>
                    <g transform="matrix(13,0,0,13,380.943,289.251)">
                        <path d="M0.262,-0L0.388,-0L0.388,-0.599L0.605,-0.599L0.605,-0.705L0.045,-0.705L0.045,-0.599L0.262,-0.599L0.262,-0Z" style="fill-rule:nonzero;"/>
                    </g>
                    <g transform="matrix(13,0,0,13,387.68,289.251)">
                        <path d="M0.22,0.009C0.243,0.009 0.265,0.006 0.285,-0.001C0.305,-0.007 0.323,-0.017 0.338,-0.029C0.354,-0.041 0.366,-0.056 0.376,-0.073L0.384,-0.073L0.384,-0L0.505,-0L0.505,-0.365C0.505,-0.402 0.496,-0.434 0.48,-0.461C0.463,-0.488 0.439,-0.509 0.407,-0.523C0.375,-0.537 0.336,-0.544 0.29,-0.544C0.248,-0.544 0.21,-0.538 0.178,-0.525C0.146,-0.513 0.12,-0.496 0.101,-0.473C0.081,-0.451 0.069,-0.425 0.065,-0.394L0.065,-0.39L0.179,-0.39L0.18,-0.392C0.186,-0.41 0.198,-0.423 0.216,-0.433C0.233,-0.443 0.256,-0.447 0.284,-0.447C0.317,-0.447 0.342,-0.44 0.359,-0.426C0.376,-0.412 0.384,-0.391 0.384,-0.365L0.384,-0.196C0.384,-0.175 0.379,-0.156 0.368,-0.139C0.357,-0.122 0.342,-0.109 0.322,-0.099C0.303,-0.089 0.281,-0.084 0.257,-0.084C0.23,-0.084 0.208,-0.091 0.19,-0.104C0.173,-0.116 0.164,-0.134 0.164,-0.157L0.164,-0.158C0.164,-0.18 0.172,-0.197 0.189,-0.209C0.205,-0.222 0.23,-0.229 0.264,-0.231L0.444,-0.243L0.444,-0.323L0.247,-0.311C0.182,-0.307 0.132,-0.291 0.097,-0.264C0.062,-0.237 0.044,-0.199 0.044,-0.152L0.044,-0.151C0.044,-0.118 0.052,-0.09 0.067,-0.066C0.082,-0.042 0.103,-0.024 0.13,-0.011C0.156,0.002 0.186,0.009 0.22,0.009Z" style="fill-rule:nonzero;"/>
                    </g>
                    <g transform="matrix(13,0,0,13,395.102,289.251)">
                        <path d="M0.131,0.188C0.171,0.188 0.204,0.182 0.232,0.171C0.26,0.161 0.284,0.142 0.304,0.117C0.323,0.091 0.341,0.056 0.356,0.012L0.548,-0.533L0.42,-0.533L0.279,-0.061L0.311,-0.117L0.27,-0.117L0.303,-0.061L0.162,-0.533L0.029,-0.533L0.22,0L0.214,0.025C0.207,0.049 0.196,0.067 0.181,0.078C0.166,0.088 0.146,0.094 0.121,0.094C0.115,0.094 0.108,0.094 0.102,0.094C0.096,0.093 0.09,0.093 0.085,0.092L0.085,0.186C0.092,0.186 0.1,0.187 0.108,0.187C0.116,0.187 0.124,0.188 0.131,0.188Z" style="fill-rule:nonzero;"/>
                    </g>
                    <g transform="matrix(13,0,0,13,402.321,289.251)">
                        <rect x="0.079" y="-0.74" width="0.121" height="0.74" style="fill-rule:nonzero;"/>
                    </g>
                    <g transform="matrix(13,0,0,13,405.872,289.251)">
                        <path d="M0.305,0.011C0.358,0.011 0.404,-0 0.442,-0.023C0.48,-0.045 0.51,-0.077 0.53,-0.118C0.551,-0.16 0.561,-0.209 0.561,-0.266L0.561,-0.267C0.561,-0.325 0.551,-0.374 0.53,-0.415C0.509,-0.457 0.48,-0.489 0.442,-0.511C0.403,-0.533 0.358,-0.544 0.305,-0.544C0.252,-0.544 0.206,-0.533 0.168,-0.511C0.129,-0.488 0.1,-0.457 0.079,-0.415C0.058,-0.374 0.048,-0.325 0.048,-0.267L0.048,-0.266C0.048,-0.209 0.058,-0.16 0.079,-0.118C0.099,-0.077 0.129,-0.045 0.167,-0.023C0.206,-0 0.251,0.011 0.305,0.011ZM0.305,-0.088C0.276,-0.088 0.252,-0.095 0.233,-0.109C0.213,-0.123 0.198,-0.143 0.188,-0.17C0.177,-0.197 0.172,-0.229 0.172,-0.266L0.172,-0.267C0.172,-0.305 0.177,-0.337 0.188,-0.363C0.198,-0.39 0.213,-0.41 0.233,-0.424C0.253,-0.439 0.276,-0.446 0.305,-0.446C0.333,-0.446 0.357,-0.439 0.376,-0.424C0.396,-0.41 0.411,-0.39 0.421,-0.363C0.432,-0.337 0.437,-0.305 0.437,-0.267L0.437,-0.266C0.437,-0.229 0.432,-0.197 0.421,-0.17C0.411,-0.144 0.396,-0.123 0.376,-0.109C0.357,-0.095 0.333,-0.088 0.305,-0.088Z" style="fill-rule:nonzero;"/>
                    </g>
                    <g transform="matrix(13,0,0,13,413.668,289.251)">
                        <path d="M0.074,-0L0.196,-0L0.196,-0.31C0.196,-0.336 0.201,-0.358 0.212,-0.376C0.224,-0.395 0.239,-0.409 0.259,-0.419C0.279,-0.43 0.303,-0.435 0.33,-0.435C0.341,-0.435 0.351,-0.434 0.361,-0.433C0.371,-0.432 0.381,-0.43 0.391,-0.428L0.391,-0.537C0.385,-0.538 0.377,-0.54 0.368,-0.541C0.36,-0.542 0.351,-0.542 0.341,-0.542C0.306,-0.542 0.277,-0.534 0.253,-0.519C0.23,-0.503 0.213,-0.48 0.204,-0.452L0.196,-0.452L0.196,-0.533L0.074,-0.533L0.074,-0Z" style="fill-rule:nonzero;"/>
                    </g>
                </g>
                <g transform="matrix(1.07535,0.0461734,-0.493441,0.100625,1063.86,82.9965)">
                    <g transform="matrix(13,0,0,13,346.598,289.251)">
                        <path d="M0.087,-0L0.213,-0L0.213,-0.265L0.353,-0.265L0.491,-0L0.635,-0L0.481,-0.284C0.523,-0.3 0.555,-0.325 0.579,-0.361C0.602,-0.397 0.613,-0.438 0.613,-0.485L0.613,-0.486C0.613,-0.531 0.604,-0.569 0.585,-0.602C0.565,-0.635 0.537,-0.66 0.501,-0.678C0.465,-0.696 0.422,-0.705 0.371,-0.705L0.087,-0.705L0.087,-0ZM0.213,-0.362L0.213,-0.603L0.356,-0.603C0.396,-0.603 0.427,-0.592 0.45,-0.571C0.473,-0.549 0.485,-0.52 0.485,-0.483L0.485,-0.482C0.485,-0.444 0.474,-0.415 0.451,-0.394C0.429,-0.373 0.398,-0.362 0.358,-0.362L0.213,-0.362Z" style="fill-rule:nonzero;"/>
                    </g>
                    <g transform="matrix(13,0,0,13,355.284,289.251)">
                        <path d="M0.305,0.011C0.358,0.011 0.404,-0 0.442,-0.023C0.48,-0.045 0.51,-0.077 0.53,-0.118C0.551,-0.16 0.561,-0.209 0.561,-0.266L0.561,-0.267C0.561,-0.325 0.551,-0.374 0.53,-0.415C0.509,-0.457 0.48,-0.489 0.442,-0.511C0.403,-0.533 0.358,-0.544 0.305,-0.544C0.252,-0.544 0.206,-0.533 0.168,-0.511C0.129,-0.488 0.1,-0.457 0.079,-0.415C0.058,-0.374 0.048,-0.325 0.048,-0.267L0.048,-0.266C0.048,-0.209 0.058,-0.16 0.079,-0.118C0.099,-0.077 0.129,-0.045 0.167,-0.023C0.206,-0 0.251,0.011 0.305,0.011ZM0.305,-0.088C0.276,-0.088 0.252,-0.095 0.233,-0.109C0.213,-0.123 0.198,-0.143 0.188,-0.17C0.177,-0.197 0.172,-0.229 0.172,-0.266L0.172,-0.267C0.172,-0.305 0.177,-0.337 0.188,-0.363C0.198,-0.39 0.213,-0.41 0.233,-0.424C0.253,-0.439 0.276,-0.446 0.305,-0.446C0.333,-0.446 0.357,-0.439 0.376,-0.424C0.396,-0.41 0.411,-0.39 0.421,-0.363C0.432,-0.337 0.437,-0.305 0.437,-0.267L0.437,-0.266C0.437,-0.229 0.432,-0.197 0.421,-0.17C0.411,-0.144 0.396,-0.123 0.376,-0.109C0.357,-0.095 0.333,-0.088 0.305,-0.088Z" style="fill-rule:nonzero;"/>
                    </g>
                    <g transform="matrix(13,0,0,13,363.081,289.251)">
                        <path d="M0.304,0.188C0.356,0.188 0.401,0.18 0.439,0.163C0.477,0.147 0.506,0.123 0.527,0.093C0.548,0.063 0.558,0.028 0.558,-0.013L0.558,-0.533L0.437,-0.533L0.437,-0.446L0.43,-0.446C0.42,-0.466 0.407,-0.483 0.391,-0.498C0.376,-0.512 0.357,-0.523 0.337,-0.531C0.316,-0.538 0.293,-0.542 0.268,-0.542C0.223,-0.542 0.183,-0.531 0.15,-0.509C0.117,-0.487 0.092,-0.457 0.074,-0.417C0.056,-0.378 0.047,-0.333 0.047,-0.282L0.047,-0.281C0.047,-0.23 0.056,-0.186 0.073,-0.147C0.091,-0.109 0.117,-0.079 0.149,-0.057C0.182,-0.036 0.221,-0.025 0.266,-0.025C0.291,-0.025 0.313,-0.028 0.334,-0.035C0.355,-0.042 0.373,-0.052 0.389,-0.065C0.405,-0.078 0.418,-0.095 0.429,-0.114L0.437,-0.114L0.437,-0.011C0.437,0.023 0.426,0.049 0.403,0.068C0.379,0.086 0.347,0.096 0.306,0.096C0.272,0.096 0.245,0.09 0.225,0.079C0.205,0.069 0.193,0.055 0.189,0.038L0.188,0.036L0.067,0.036L0.066,0.038C0.07,0.067 0.082,0.094 0.102,0.116C0.122,0.139 0.148,0.156 0.182,0.169C0.216,0.181 0.257,0.188 0.304,0.188ZM0.304,-0.122C0.275,-0.122 0.252,-0.128 0.232,-0.142C0.212,-0.155 0.197,-0.174 0.187,-0.198C0.176,-0.222 0.171,-0.249 0.171,-0.281L0.171,-0.282C0.171,-0.313 0.176,-0.341 0.187,-0.365C0.197,-0.389 0.212,-0.408 0.232,-0.421C0.252,-0.435 0.275,-0.442 0.304,-0.442C0.332,-0.442 0.356,-0.435 0.376,-0.421C0.396,-0.408 0.412,-0.389 0.423,-0.365C0.433,-0.341 0.439,-0.313 0.439,-0.282L0.439,-0.281C0.439,-0.249 0.433,-0.222 0.423,-0.198C0.412,-0.174 0.396,-0.155 0.376,-0.142C0.356,-0.128 0.332,-0.122 0.304,-0.122Z" style="fill-rule:nonzero;"/>
                    </g>
                    <g transform="matrix(13,0,0,13,371.113,289.251)">
                        <path d="M0.303,0.011C0.339,0.011 0.371,0.006 0.398,-0.003C0.425,-0.012 0.448,-0.025 0.467,-0.04C0.486,-0.055 0.502,-0.071 0.513,-0.089C0.524,-0.107 0.532,-0.124 0.536,-0.141L0.537,-0.146L0.422,-0.146L0.42,-0.143C0.417,-0.134 0.41,-0.126 0.4,-0.117C0.39,-0.108 0.377,-0.1 0.362,-0.094C0.346,-0.088 0.327,-0.085 0.305,-0.085C0.277,-0.085 0.253,-0.091 0.233,-0.103C0.212,-0.116 0.197,-0.134 0.186,-0.157C0.175,-0.18 0.169,-0.208 0.169,-0.241L0.169,-0.29C0.169,-0.324 0.175,-0.353 0.186,-0.377C0.197,-0.4 0.212,-0.418 0.232,-0.431C0.251,-0.443 0.273,-0.449 0.298,-0.449C0.323,-0.449 0.345,-0.443 0.364,-0.431C0.383,-0.419 0.398,-0.402 0.409,-0.378C0.42,-0.355 0.425,-0.325 0.425,-0.29L0.425,-0.242L0.483,-0.318L0.109,-0.318L0.109,-0.236L0.542,-0.236L0.542,-0.276C0.542,-0.33 0.532,-0.377 0.513,-0.417C0.493,-0.457 0.465,-0.488 0.428,-0.511C0.391,-0.533 0.348,-0.544 0.297,-0.544C0.246,-0.544 0.202,-0.533 0.165,-0.51C0.128,-0.486 0.099,-0.454 0.078,-0.413C0.058,-0.371 0.048,-0.322 0.048,-0.266L0.048,-0.265C0.048,-0.209 0.058,-0.16 0.078,-0.119C0.099,-0.077 0.128,-0.045 0.166,-0.023C0.204,-0.001 0.25,0.011 0.303,0.011Z" style="fill-rule:nonzero;"/>
                    </g>
                    <g transform="matrix(13,0,0,13,378.668,289.251)">
                        <path d="M0.074,-0L0.196,-0L0.196,-0.31C0.196,-0.336 0.201,-0.358 0.212,-0.376C0.224,-0.395 0.239,-0.409 0.259,-0.419C0.279,-0.43 0.303,-0.435 0.33,-0.435C0.341,-0.435 0.351,-0.434 0.361,-0.433C0.371,-0.432 0.381,-0.43 0.391,-0.428L0.391,-0.537C0.385,-0.538 0.377,-0.54 0.368,-0.541C0.36,-0.542 0.351,-0.542 0.341,-0.542C0.306,-0.542 0.277,-0.534 0.253,-0.519C0.23,-0.503 0.213,-0.48 0.204,-0.452L0.196,-0.452L0.196,-0.533L0.074,-0.533L0.074,-0Z" style="fill-rule:nonzero;"/>
                    </g>
                    <g transform="matrix(13,0,0,13,387.134,289.251)">
                        <path d="M0.381,0.018C0.435,0.018 0.483,0.008 0.526,-0.012C0.568,-0.032 0.603,-0.059 0.63,-0.094C0.656,-0.13 0.673,-0.171 0.679,-0.217L0.679,-0.221L0.555,-0.221L0.554,-0.218C0.549,-0.193 0.538,-0.17 0.522,-0.151C0.506,-0.132 0.486,-0.117 0.462,-0.107C0.438,-0.097 0.411,-0.091 0.381,-0.091C0.341,-0.091 0.306,-0.102 0.277,-0.123C0.248,-0.144 0.225,-0.174 0.209,-0.213C0.194,-0.252 0.186,-0.299 0.186,-0.352L0.186,-0.353C0.186,-0.406 0.194,-0.453 0.209,-0.492C0.225,-0.53 0.248,-0.56 0.277,-0.582C0.306,-0.603 0.341,-0.613 0.38,-0.613C0.41,-0.613 0.437,-0.607 0.461,-0.596C0.485,-0.585 0.505,-0.568 0.521,-0.548C0.538,-0.527 0.549,-0.503 0.555,-0.475L0.555,-0.473L0.678,-0.473L0.679,-0.477C0.673,-0.525 0.657,-0.567 0.63,-0.604C0.603,-0.641 0.568,-0.67 0.525,-0.691C0.482,-0.712 0.434,-0.722 0.38,-0.722C0.314,-0.722 0.256,-0.707 0.208,-0.677C0.16,-0.647 0.123,-0.605 0.096,-0.55C0.07,-0.495 0.057,-0.429 0.057,-0.353L0.057,-0.352C0.057,-0.276 0.07,-0.21 0.096,-0.155C0.123,-0.1 0.16,-0.057 0.208,-0.027C0.257,0.003 0.314,0.018 0.381,0.018Z" style="fill-rule:nonzero;"/>
                    </g>
                    <g transform="matrix(13,0,0,13,396.949,289.251)">
                        <path d="M0.074,-0L0.196,-0L0.196,-0.31C0.196,-0.336 0.201,-0.358 0.212,-0.376C0.224,-0.395 0.239,-0.409 0.259,-0.419C0.279,-0.43 0.303,-0.435 0.33,-0.435C0.341,-0.435 0.351,-0.434 0.361,-0.433C0.371,-0.432 0.381,-0.43 0.391,-0.428L0.391,-0.537C0.385,-0.538 0.377,-0.54 0.368,-0.541C0.36,-0.542 0.351,-0.542 0.341,-0.542C0.306,-0.542 0.277,-0.534 0.253,-0.519C0.23,-0.503 0.213,-0.48 0.204,-0.452L0.196,-0.452L0.196,-0.533L0.074,-0.533L0.074,-0Z" style="fill-rule:nonzero;"/>
                    </g>
                    <g transform="matrix(13,0,0,13,401.725,289.251)">
                        <path d="M0.22,0.009C0.243,0.009 0.265,0.006 0.285,-0.001C0.305,-0.007 0.323,-0.017 0.338,-0.029C0.354,-0.041 0.366,-0.056 0.376,-0.073L0.384,-0.073L0.384,-0L0.505,-0L0.505,-0.365C0.505,-0.402 0.496,-0.434 0.48,-0.461C0.463,-0.488 0.439,-0.509 0.407,-0.523C0.375,-0.537 0.336,-0.544 0.29,-0.544C0.248,-0.544 0.21,-0.538 0.178,-0.525C0.146,-0.513 0.12,-0.496 0.101,-0.473C0.081,-0.451 0.069,-0.425 0.065,-0.394L0.065,-0.39L0.179,-0.39L0.18,-0.392C0.186,-0.41 0.198,-0.423 0.216,-0.433C0.233,-0.443 0.256,-0.447 0.284,-0.447C0.317,-0.447 0.342,-0.44 0.359,-0.426C0.376,-0.412 0.384,-0.391 0.384,-0.365L0.384,-0.196C0.384,-0.175 0.379,-0.156 0.368,-0.139C0.357,-0.122 0.342,-0.109 0.322,-0.099C0.303,-0.089 0.281,-0.084 0.257,-0.084C0.23,-0.084 0.208,-0.091 0.19,-0.104C0.173,-0.116 0.164,-0.134 0.164,-0.157L0.164,-0.158C0.164,-0.18 0.172,-0.197 0.189,-0.209C0.205,-0.222 0.23,-0.229 0.264,-0.231L0.444,-0.243L0.444,-0.323L0.247,-0.311C0.182,-0.307 0.132,-0.291 0.097,-0.264C0.062,-0.237 0.044,-0.199 0.044,-0.152L0.044,-0.151C0.044,-0.118 0.052,-0.09 0.067,-0.066C0.082,-0.042 0.103,-0.024 0.13,-0.011C0.156,0.002 0.186,0.009 0.22,0.009Z" style="fill-rule:nonzero;"/>
                    </g>
                    <g transform="matrix(13,0,0,13,409.147,289.251)">
                        <path d="M0.075,-0L0.197,-0L0.197,-0.533L0.075,-0.533L0.075,-0ZM0.137,-0.623C0.157,-0.623 0.174,-0.63 0.188,-0.644C0.202,-0.658 0.209,-0.675 0.209,-0.695C0.209,-0.715 0.202,-0.731 0.188,-0.745C0.174,-0.759 0.157,-0.766 0.137,-0.766C0.117,-0.766 0.1,-0.759 0.086,-0.745C0.071,-0.731 0.064,-0.715 0.064,-0.695C0.064,-0.675 0.071,-0.658 0.086,-0.644C0.1,-0.63 0.117,-0.623 0.137,-0.623Z" style="fill-rule:nonzero;"/>
                    </g>
                    <g transform="matrix(13,0,0,13,412.723,289.251)">
                        <path d="M0.304,0.188C0.356,0.188 0.401,0.18 0.439,0.163C0.477,0.147 0.506,0.123 0.527,0.093C0.548,0.063 0.558,0.028 0.558,-0.013L0.558,-0.533L0.437,-0.533L0.437,-0.446L0.43,-0.446C0.42,-0.466 0.407,-0.483 0.391,-0.498C0.376,-0.512 0.357,-0.523 0.337,-0.531C0.316,-0.538 0.293,-0.542 0.268,-0.542C0.223,-0.542 0.183,-0.531 0.15,-0.509C0.117,-0.487 0.092,-0.457 0.074,-0.417C0.056,-0.378 0.047,-0.333 0.047,-0.282L0.047,-0.281C0.047,-0.23 0.056,-0.186 0.073,-0.147C0.091,-0.109 0.117,-0.079 0.149,-0.057C0.182,-0.036 0.221,-0.025 0.266,-0.025C0.291,-0.025 0.313,-0.028 0.334,-0.035C0.355,-0.042 0.373,-0.052 0.389,-0.065C0.405,-0.078 0.418,-0.095 0.429,-0.114L0.437,-0.114L0.437,-0.011C0.437,0.023 0.426,0.049 0.403,0.068C0.379,0.086 0.347,0.096 0.306,0.096C0.272,0.096 0.245,0.09 0.225,0.079C0.205,0.069 0.193,0.055 0.189,0.038L0.188,0.036L0.067,0.036L0.066,0.038C0.07,0.067 0.082,0.094 0.102,0.116C0.122,0.139 0.148,0.156 0.182,0.169C0.216,0.181 0.257,0.188 0.304,0.188ZM0.304,-0.122C0.275,-0.122 0.252,-0.128 0.232,-0.142C0.212,-0.155 0.197,-0.174 0.187,-0.198C0.176,-0.222 0.171,-0.249 0.171,-0.281L0.171,-0.282C0.171,-0.313 0.176,-0.341 0.187,-0.365C0.197,-0.389 0.212,-0.408 0.232,-0.421C0.252,-0.435 0.275,-0.442 0.304,-0.442C0.332,-0.442 0.356,-0.435 0.376,-0.421C0.396,-0.408 0.412,-0.389 0.423,-0.365C0.433,-0.341 0.439,-0.313 0.439,-0.282L0.439,-0.281C0.439,-0.249 0.433,-0.222 0.423,-0.198C0.412,-0.174 0.396,-0.155 0.376,-0.142C0.356,-0.128 0.332,-0.122 0.304,-0.122Z" style="fill-rule:nonzero;"/>
                    </g>
                </g>
                <g transform="matrix(0.835593,0.0783819,-0.837643,0.0781901,1219.15,79.8596)">
                    <g transform="matrix(13,0,0,13,346.598,289.251)">
                        <path d="M0.262,-0L0.388,-0L0.388,-0.599L0.605,-0.599L0.605,-0.705L0.045,-0.705L0.045,-0.599L0.262,-0.599L0.262,-0Z" style="fill-rule:nonzero;"/>
                    </g>
                    <g transform="matrix(13,0,0,13,353.335,289.251)">
                        <path d="M0.303,0.011C0.339,0.011 0.371,0.006 0.398,-0.003C0.425,-0.012 0.448,-0.025 0.467,-0.04C0.486,-0.055 0.502,-0.071 0.513,-0.089C0.524,-0.107 0.532,-0.124 0.536,-0.141L0.537,-0.146L0.422,-0.146L0.42,-0.143C0.417,-0.134 0.41,-0.126 0.4,-0.117C0.39,-0.108 0.377,-0.1 0.362,-0.094C0.346,-0.088 0.327,-0.085 0.305,-0.085C0.277,-0.085 0.253,-0.091 0.233,-0.103C0.212,-0.116 0.197,-0.134 0.186,-0.157C0.175,-0.18 0.169,-0.208 0.169,-0.241L0.169,-0.29C0.169,-0.324 0.175,-0.353 0.186,-0.377C0.197,-0.4 0.212,-0.418 0.232,-0.431C0.251,-0.443 0.273,-0.449 0.298,-0.449C0.323,-0.449 0.345,-0.443 0.364,-0.431C0.383,-0.419 0.398,-0.402 0.409,-0.378C0.42,-0.355 0.425,-0.325 0.425,-0.29L0.425,-0.242L0.483,-0.318L0.109,-0.318L0.109,-0.236L0.542,-0.236L0.542,-0.276C0.542,-0.33 0.532,-0.377 0.513,-0.417C0.493,-0.457 0.465,-0.488 0.428,-0.511C0.391,-0.533 0.348,-0.544 0.297,-0.544C0.246,-0.544 0.202,-0.533 0.165,-0.51C0.128,-0.486 0.099,-0.454 0.078,-0.413C0.058,-0.371 0.048,-0.322 0.048,-0.266L0.048,-0.265C0.048,-0.209 0.058,-0.16 0.078,-0.119C0.099,-0.077 0.128,-0.045 0.166,-0.023C0.204,-0.001 0.25,0.011 0.303,0.011Z" style="fill-rule:nonzero;"/>
                    </g>
                    <g transform="matrix(13,0,0,13,360.891,289.251)">
                        <path d="M0.074,-0L0.196,-0L0.196,-0.31C0.196,-0.336 0.201,-0.358 0.212,-0.376C0.224,-0.395 0.239,-0.409 0.259,-0.419C0.279,-0.43 0.303,-0.435 0.33,-0.435C0.341,-0.435 0.351,-0.434 0.361,-0.433C0.371,-0.432 0.381,-0.43 0.391,-0.428L0.391,-0.537C0.385,-0.538 0.377,-0.54 0.368,-0.541C0.36,-0.542 0.351,-0.542 0.341,-0.542C0.306,-0.542 0.277,-0.534 0.253,-0.519C0.23,-0.503 0.213,-0.48 0.204,-0.452L0.196,-0.452L0.196,-0.533L0.074,-0.533L0.074,-0Z" style="fill-rule:nonzero;"/>
                    </g>
                    <g transform="matrix(13,0,0,13,365.793,289.251)">
                        <path d="M0.074,-0L0.196,-0L0.196,-0.31C0.196,-0.336 0.201,-0.358 0.212,-0.376C0.224,-0.395 0.239,-0.409 0.259,-0.419C0.279,-0.43 0.303,-0.435 0.33,-0.435C0.341,-0.435 0.351,-0.434 0.361,-0.433C0.371,-0.432 0.381,-0.43 0.391,-0.428L0.391,-0.537C0.385,-0.538 0.377,-0.54 0.368,-0.541C0.36,-0.542 0.351,-0.542 0.341,-0.542C0.306,-0.542 0.277,-0.534 0.253,-0.519C0.23,-0.503 0.213,-0.48 0.204,-0.452L0.196,-0.452L0.196,-0.533L0.074,-0.533L0.074,-0Z" style="fill-rule:nonzero;"/>
                    </g>
                    <g transform="matrix(13,0,0,13,370.378,289.251)">
                        <path d="M0.303,0.011C0.339,0.011 0.371,0.006 0.398,-0.003C0.425,-0.012 0.448,-0.025 0.467,-0.04C0.486,-0.055 0.502,-0.071 0.513,-0.089C0.524,-0.107 0.532,-0.124 0.536,-0.141L0.537,-0.146L0.422,-0.146L0.42,-0.143C0.417,-0.134 0.41,-0.126 0.4,-0.117C0.39,-0.108 0.377,-0.1 0.362,-0.094C0.346,-0.088 0.327,-0.085 0.305,-0.085C0.277,-0.085 0.253,-0.091 0.233,-0.103C0.212,-0.116 0.197,-0.134 0.186,-0.157C0.175,-0.18 0.169,-0.208 0.169,-0.241L0.169,-0.29C0.169,-0.324 0.175,-0.353 0.186,-0.377C0.197,-0.4 0.212,-0.418 0.232,-0.431C0.251,-0.443 0.273,-0.449 0.298,-0.449C0.323,-0.449 0.345,-0.443 0.364,-0.431C0.383,-0.419 0.398,-0.402 0.409,-0.378C0.42,-0.355 0.425,-0.325 0.425,-0.29L0.425,-0.242L0.483,-0.318L0.109,-0.318L0.109,-0.236L0.542,-0.236L0.542,-0.276C0.542,-0.33 0.532,-0.377 0.513,-0.417C0.493,-0.457 0.465,-0.488 0.428,-0.511C0.391,-0.533 0.348,-0.544 0.297,-0.544C0.246,-0.544 0.202,-0.533 0.165,-0.51C0.128,-0.486 0.099,-0.454 0.078,-0.413C0.058,-0.371 0.048,-0.322 0.048,-0.266L0.048,-0.265C0.048,-0.209 0.058,-0.16 0.078,-0.119C0.099,-0.077 0.128,-0.045 0.166,-0.023C0.204,-0.001 0.25,0.011 0.303,0.011Z" style="fill-rule:nonzero;"/>
                    </g>
                    <g transform="matrix(13,0,0,13,377.934,289.251)">
                        <rect x="0.079" y="-0.74" width="0.121" height="0.74" style="fill-rule:nonzero;"/>
                    </g>
                    <g transform="matrix(13,0,0,13,381.484,289.251)">
                        <rect x="0.079" y="-0.74" width="0.121" height="0.74" style="fill-rule:nonzero;"/>
                    </g>
                    <g transform="matrix(13,0,0,13,388.598,289.251)">
                        <path d="M0.391,0.018C0.459,0.018 0.518,0.002 0.568,-0.028C0.618,-0.058 0.656,-0.101 0.683,-0.156C0.71,-0.211 0.724,-0.277 0.724,-0.352L0.724,-0.353C0.724,-0.429 0.71,-0.494 0.683,-0.549C0.656,-0.605 0.618,-0.647 0.568,-0.677C0.518,-0.707 0.459,-0.722 0.391,-0.722C0.322,-0.722 0.264,-0.707 0.214,-0.677C0.164,-0.647 0.125,-0.605 0.098,-0.55C0.071,-0.494 0.057,-0.429 0.057,-0.353L0.057,-0.352C0.057,-0.277 0.071,-0.211 0.098,-0.156C0.125,-0.1 0.163,-0.058 0.213,-0.028C0.262,0.003 0.322,0.018 0.391,0.018ZM0.391,-0.091C0.348,-0.091 0.312,-0.102 0.281,-0.124C0.25,-0.145 0.227,-0.175 0.21,-0.215C0.194,-0.254 0.185,-0.299 0.185,-0.352L0.185,-0.353C0.185,-0.406 0.194,-0.452 0.211,-0.491C0.228,-0.53 0.251,-0.56 0.282,-0.581C0.313,-0.603 0.349,-0.613 0.391,-0.613C0.432,-0.613 0.469,-0.603 0.499,-0.581C0.53,-0.56 0.554,-0.53 0.57,-0.491C0.587,-0.452 0.595,-0.406 0.595,-0.353L0.595,-0.352C0.595,-0.299 0.587,-0.254 0.57,-0.215C0.554,-0.175 0.53,-0.145 0.499,-0.124C0.469,-0.102 0.432,-0.091 0.391,-0.091Z" style="fill-rule:nonzero;"/>
                    </g>
                    <g transform="matrix(13,0,0,13,399.003,289.251)">
                        <path d="M0.176,-0L0.302,-0L0.405,-0.387L0.414,-0.387L0.518,-0L0.645,-0L0.789,-0.533L0.669,-0.533L0.58,-0.133L0.572,-0.133L0.469,-0.533L0.353,-0.533L0.25,-0.133L0.242,-0.133L0.153,-0.533L0.031,-0.533L0.176,-0Z" style="fill-rule:nonzero;"/>
                    </g>
                    <g transform="matrix(13,0,0,13,409.2,289.251)">
                        <path d="M0.303,0.011C0.339,0.011 0.371,0.006 0.398,-0.003C0.425,-0.012 0.448,-0.025 0.467,-0.04C0.486,-0.055 0.502,-0.071 0.513,-0.089C0.524,-0.107 0.532,-0.124 0.536,-0.141L0.537,-0.146L0.422,-0.146L0.42,-0.143C0.417,-0.134 0.41,-0.126 0.4,-0.117C0.39,-0.108 0.377,-0.1 0.362,-0.094C0.346,-0.088 0.327,-0.085 0.305,-0.085C0.277,-0.085 0.253,-0.091 0.233,-0.103C0.212,-0.116 0.197,-0.134 0.186,-0.157C0.175,-0.18 0.169,-0.208 0.169,-0.241L0.169,-0.29C0.169,-0.324 0.175,-0.353 0.186,-0.377C0.197,-0.4 0.212,-0.418 0.232,-0.431C0.251,-0.443 0.273,-0.449 0.298,-0.449C0.323,-0.449 0.345,-0.443 0.364,-0.431C0.383,-0.419 0.398,-0.402 0.409,-0.378C0.42,-0.355 0.425,-0.325 0.425,-0.29L0.425,-0.242L0.483,-0.318L0.109,-0.318L0.109,-0.236L0.542,-0.236L0.542,-0.276C0.542,-0.33 0.532,-0.377 0.513,-0.417C0.493,-0.457 0.465,-0.488 0.428,-0.511C0.391,-0.533 0.348,-0.544 0.297,-0.544C0.246,-0.544 0.202,-0.533 0.165,-0.51C0.128,-0.486 0.099,-0.454 0.078,-0.413C0.058,-0.371 0.048,-0.322 0.048,-0.266L0.048,-0.265C0.048,-0.209 0.058,-0.16 0.078,-0.119C0.099,-0.077 0.128,-0.045 0.166,-0.023C0.204,-0.001 0.25,0.011 0.303,0.011Z" style="fill-rule:nonzero;"/>
                    </g>
                    <g transform="matrix(13,0,0,13,416.755,289.251)">
                        <path d="M0.074,-0L0.196,-0L0.196,-0.311C0.196,-0.338 0.2,-0.361 0.21,-0.38C0.219,-0.4 0.233,-0.415 0.25,-0.426C0.268,-0.436 0.289,-0.442 0.313,-0.442C0.35,-0.442 0.377,-0.431 0.394,-0.411C0.412,-0.39 0.42,-0.359 0.42,-0.317L0.42,-0L0.542,-0L0.542,-0.345C0.542,-0.409 0.526,-0.458 0.495,-0.492C0.463,-0.527 0.418,-0.544 0.358,-0.544C0.319,-0.544 0.287,-0.536 0.262,-0.52C0.236,-0.503 0.217,-0.481 0.204,-0.452L0.196,-0.452L0.196,-0.533L0.074,-0.533L0.074,-0Z" style="fill-rule:nonzero;"/>
                    </g>
                    <g transform="matrix(13,0,0,13,424.501,289.251)">
                        <path d="M0.276,0.011C0.32,0.011 0.358,0.004 0.393,-0.01C0.427,-0.024 0.453,-0.044 0.473,-0.07C0.493,-0.095 0.502,-0.125 0.502,-0.159L0.502,-0.16C0.502,-0.199 0.49,-0.23 0.465,-0.253C0.44,-0.276 0.401,-0.293 0.349,-0.305L0.262,-0.324C0.233,-0.331 0.213,-0.339 0.201,-0.349C0.188,-0.359 0.182,-0.372 0.182,-0.388L0.182,-0.388C0.182,-0.402 0.186,-0.413 0.194,-0.423C0.202,-0.433 0.213,-0.441 0.227,-0.446C0.241,-0.452 0.257,-0.454 0.275,-0.454C0.304,-0.454 0.327,-0.449 0.344,-0.437C0.361,-0.425 0.372,-0.41 0.376,-0.393L0.377,-0.392L0.491,-0.392L0.491,-0.393C0.489,-0.422 0.478,-0.448 0.461,-0.471C0.443,-0.493 0.419,-0.511 0.388,-0.524C0.356,-0.538 0.319,-0.544 0.276,-0.544C0.234,-0.544 0.197,-0.537 0.165,-0.524C0.132,-0.51 0.107,-0.491 0.089,-0.466C0.071,-0.442 0.062,-0.414 0.062,-0.381L0.062,-0.381C0.062,-0.342 0.074,-0.31 0.099,-0.285C0.124,-0.261 0.161,-0.243 0.212,-0.232L0.298,-0.213C0.328,-0.206 0.349,-0.197 0.361,-0.187C0.374,-0.176 0.38,-0.163 0.38,-0.147L0.38,-0.146C0.38,-0.133 0.376,-0.121 0.367,-0.111C0.358,-0.101 0.346,-0.093 0.331,-0.088C0.316,-0.082 0.298,-0.079 0.278,-0.079C0.248,-0.079 0.224,-0.085 0.206,-0.097C0.188,-0.108 0.175,-0.123 0.169,-0.142L0.169,-0.143L0.048,-0.143L0.048,-0.142C0.051,-0.112 0.063,-0.085 0.081,-0.062C0.1,-0.04 0.126,-0.022 0.159,-0.009C0.192,0.004 0.231,0.011 0.276,0.011Z" style="fill-rule:nonzero;"/>
                    </g>
                </g>
                <g transform="matrix(0.54147,0.0984388,-1.05199,0.0506677,1369.74,82.7341)">
                    <g transform="matrix(13,0,0,13,346.598,289.251)">
                        <path d="M0.331,0.018C0.388,0.018 0.436,0.008 0.478,-0.01C0.519,-0.028 0.551,-0.054 0.573,-0.087C0.595,-0.12 0.607,-0.16 0.607,-0.205L0.607,-0.206C0.607,-0.259 0.59,-0.302 0.557,-0.333C0.524,-0.364 0.47,-0.388 0.396,-0.403L0.32,-0.42C0.276,-0.429 0.245,-0.441 0.225,-0.458C0.206,-0.474 0.197,-0.494 0.197,-0.519L0.197,-0.519C0.197,-0.54 0.202,-0.557 0.214,-0.571C0.225,-0.586 0.241,-0.597 0.261,-0.605C0.281,-0.613 0.304,-0.616 0.33,-0.616C0.357,-0.617 0.381,-0.613 0.401,-0.605C0.421,-0.597 0.437,-0.586 0.45,-0.572C0.462,-0.558 0.469,-0.541 0.472,-0.523L0.473,-0.517L0.593,-0.517L0.593,-0.523C0.59,-0.561 0.578,-0.595 0.556,-0.625C0.534,-0.655 0.504,-0.679 0.466,-0.696C0.428,-0.713 0.383,-0.722 0.331,-0.722C0.28,-0.722 0.235,-0.713 0.196,-0.696C0.157,-0.678 0.126,-0.653 0.104,-0.622C0.082,-0.59 0.07,-0.553 0.07,-0.511L0.07,-0.511C0.07,-0.458 0.087,-0.415 0.119,-0.382C0.152,-0.348 0.205,-0.323 0.277,-0.308L0.353,-0.292C0.398,-0.283 0.431,-0.27 0.451,-0.254C0.47,-0.237 0.48,-0.217 0.48,-0.191L0.48,-0.191C0.48,-0.171 0.474,-0.153 0.462,-0.137C0.449,-0.122 0.432,-0.11 0.411,-0.101C0.389,-0.092 0.364,-0.088 0.335,-0.088C0.306,-0.088 0.279,-0.092 0.256,-0.1C0.233,-0.109 0.215,-0.12 0.201,-0.135C0.187,-0.149 0.179,-0.167 0.177,-0.186L0.177,-0.191L0.054,-0.191L0.055,-0.184C0.058,-0.144 0.071,-0.109 0.094,-0.078C0.117,-0.048 0.149,-0.025 0.189,-0.008C0.23,0.009 0.277,0.018 0.331,0.018Z" style="fill-rule:nonzero;"/>
                    </g>
                    <g transform="matrix(13,0,0,13,355.208,289.251)">
                        <path d="M0.284,0.003C0.296,0.003 0.307,0.002 0.318,0.001C0.329,-0 0.339,-0.001 0.347,-0.003L0.347,-0.097C0.34,-0.096 0.334,-0.095 0.328,-0.095C0.322,-0.095 0.315,-0.094 0.306,-0.094C0.281,-0.094 0.263,-0.101 0.252,-0.113C0.24,-0.125 0.235,-0.144 0.235,-0.171L0.235,-0.44L0.347,-0.44L0.347,-0.533L0.235,-0.533L0.235,-0.665L0.111,-0.665L0.111,-0.533L0.028,-0.533L0.028,-0.44L0.111,-0.44L0.111,-0.142C0.111,-0.09 0.125,-0.054 0.152,-0.031C0.179,-0.009 0.223,0.003 0.284,0.003Z" style="fill-rule:nonzero;"/>
                    </g>
                    <g transform="matrix(13,0,0,13,359.831,289.251)">
                        <path d="M0.303,0.011C0.339,0.011 0.371,0.006 0.398,-0.003C0.425,-0.012 0.448,-0.025 0.467,-0.04C0.486,-0.055 0.502,-0.071 0.513,-0.089C0.524,-0.107 0.532,-0.124 0.536,-0.141L0.537,-0.146L0.422,-0.146L0.42,-0.143C0.417,-0.134 0.41,-0.126 0.4,-0.117C0.39,-0.108 0.377,-0.1 0.362,-0.094C0.346,-0.088 0.327,-0.085 0.305,-0.085C0.277,-0.085 0.253,-0.091 0.233,-0.103C0.212,-0.116 0.197,-0.134 0.186,-0.157C0.175,-0.18 0.169,-0.208 0.169,-0.241L0.169,-0.29C0.169,-0.324 0.175,-0.353 0.186,-0.377C0.197,-0.4 0.212,-0.418 0.232,-0.431C0.251,-0.443 0.273,-0.449 0.298,-0.449C0.323,-0.449 0.345,-0.443 0.364,-0.431C0.383,-0.419 0.398,-0.402 0.409,-0.378C0.42,-0.355 0.425,-0.325 0.425,-0.29L0.425,-0.242L0.483,-0.318L0.109,-0.318L0.109,-0.236L0.542,-0.236L0.542,-0.276C0.542,-0.33 0.532,-0.377 0.513,-0.417C0.493,-0.457 0.465,-0.488 0.428,-0.511C0.391,-0.533 0.348,-0.544 0.297,-0.544C0.246,-0.544 0.202,-0.533 0.165,-0.51C0.128,-0.486 0.099,-0.454 0.078,-0.413C0.058,-0.371 0.048,-0.322 0.048,-0.266L0.048,-0.265C0.048,-0.209 0.058,-0.16 0.078,-0.119C0.099,-0.077 0.128,-0.045 0.166,-0.023C0.204,-0.001 0.25,0.011 0.303,0.011Z" style="fill-rule:nonzero;"/>
                    </g>
                    <g transform="matrix(13,0,0,13,367.133,289.251)">
                        <path d="M0.218,-0L0.351,-0L0.54,-0.533L0.412,-0.533L0.289,-0.118L0.281,-0.118L0.158,-0.533L0.028,-0.533L0.218,-0Z" style="fill-rule:nonzero;"/>
                    </g>
                    <g transform="matrix(13,0,0,13,374.054,289.251)">
                        <path d="M0.303,0.011C0.339,0.011 0.371,0.006 0.398,-0.003C0.425,-0.012 0.448,-0.025 0.467,-0.04C0.486,-0.055 0.502,-0.071 0.513,-0.089C0.524,-0.107 0.532,-0.124 0.536,-0.141L0.537,-0.146L0.422,-0.146L0.42,-0.143C0.417,-0.134 0.41,-0.126 0.4,-0.117C0.39,-0.108 0.377,-0.1 0.362,-0.094C0.346,-0.088 0.327,-0.085 0.305,-0.085C0.277,-0.085 0.253,-0.091 0.233,-0.103C0.212,-0.116 0.197,-0.134 0.186,-0.157C0.175,-0.18 0.169,-0.208 0.169,-0.241L0.169,-0.29C0.169,-0.324 0.175,-0.353 0.186,-0.377C0.197,-0.4 0.212,-0.418 0.232,-0.431C0.251,-0.443 0.273,-0.449 0.298,-0.449C0.323,-0.449 0.345,-0.443 0.364,-0.431C0.383,-0.419 0.398,-0.402 0.409,-0.378C0.42,-0.355 0.425,-0.325 0.425,-0.29L0.425,-0.242L0.483,-0.318L0.109,-0.318L0.109,-0.236L0.542,-0.236L0.542,-0.276C0.542,-0.33 0.532,-0.377 0.513,-0.417C0.493,-0.457 0.465,-0.488 0.428,-0.511C0.391,-0.533 0.348,-0.544 0.297,-0.544C0.246,-0.544 0.202,-0.533 0.165,-0.51C0.128,-0.486 0.099,-0.454 0.078,-0.413C0.058,-0.371 0.048,-0.322 0.048,-0.266L0.048,-0.265C0.048,-0.209 0.058,-0.16 0.078,-0.119C0.099,-0.077 0.128,-0.045 0.166,-0.023C0.204,-0.001 0.25,0.011 0.303,0.011Z" style="fill-rule:nonzero;"/>
                    </g>
                    <g transform="matrix(13,0,0,13,385.172,289.251)">
                        <path d="M0.282,-0L0.407,-0L0.407,-0.278L0.654,-0.705L0.516,-0.705L0.349,-0.402L0.34,-0.402L0.172,-0.705L0.034,-0.705L0.282,-0.278L0.282,-0Z" style="fill-rule:nonzero;"/>
                    </g>
                    <g transform="matrix(13,0,0,13,392.823,289.251)">
                        <path d="M0.305,0.011C0.358,0.011 0.404,-0 0.442,-0.023C0.48,-0.045 0.51,-0.077 0.53,-0.118C0.551,-0.16 0.561,-0.209 0.561,-0.266L0.561,-0.267C0.561,-0.325 0.551,-0.374 0.53,-0.415C0.509,-0.457 0.48,-0.489 0.442,-0.511C0.403,-0.533 0.358,-0.544 0.305,-0.544C0.252,-0.544 0.206,-0.533 0.168,-0.511C0.129,-0.488 0.1,-0.457 0.079,-0.415C0.058,-0.374 0.048,-0.325 0.048,-0.267L0.048,-0.266C0.048,-0.209 0.058,-0.16 0.079,-0.118C0.099,-0.077 0.129,-0.045 0.167,-0.023C0.206,-0 0.251,0.011 0.305,0.011ZM0.305,-0.088C0.276,-0.088 0.252,-0.095 0.233,-0.109C0.213,-0.123 0.198,-0.143 0.188,-0.17C0.177,-0.197 0.172,-0.229 0.172,-0.266L0.172,-0.267C0.172,-0.305 0.177,-0.337 0.188,-0.363C0.198,-0.39 0.213,-0.41 0.233,-0.424C0.253,-0.439 0.276,-0.446 0.305,-0.446C0.333,-0.446 0.357,-0.439 0.376,-0.424C0.396,-0.41 0.411,-0.39 0.421,-0.363C0.432,-0.337 0.437,-0.305 0.437,-0.267L0.437,-0.266C0.437,-0.229 0.432,-0.197 0.421,-0.17C0.411,-0.144 0.396,-0.123 0.376,-0.109C0.357,-0.095 0.333,-0.088 0.305,-0.088Z" style="fill-rule:nonzero;"/>
                    </g>
                    <g transform="matrix(13,0,0,13,400.62,289.251)">
                        <path d="M0.251,0.011C0.29,0.011 0.322,0.003 0.349,-0.014C0.375,-0.03 0.395,-0.053 0.407,-0.081L0.416,-0.081L0.416,-0L0.537,-0L0.537,-0.533L0.416,-0.533L0.416,-0.222C0.416,-0.196 0.411,-0.173 0.402,-0.153C0.393,-0.134 0.379,-0.118 0.361,-0.108C0.343,-0.097 0.321,-0.092 0.295,-0.092C0.258,-0.092 0.232,-0.102 0.215,-0.123C0.199,-0.144 0.191,-0.175 0.191,-0.216L0.191,-0.533L0.069,-0.533L0.069,-0.188C0.069,-0.146 0.076,-0.11 0.09,-0.08C0.103,-0.051 0.124,-0.028 0.151,-0.013C0.178,0.003 0.211,0.011 0.251,0.011Z" style="fill-rule:nonzero;"/>
                    </g>
                    <g transform="matrix(13,0,0,13,408.366,289.251)">
                        <path d="M0.074,-0L0.196,-0L0.196,-0.311C0.196,-0.338 0.2,-0.361 0.21,-0.38C0.219,-0.4 0.233,-0.415 0.25,-0.426C0.268,-0.436 0.289,-0.442 0.313,-0.442C0.35,-0.442 0.377,-0.431 0.394,-0.411C0.412,-0.39 0.42,-0.359 0.42,-0.317L0.42,-0L0.542,-0L0.542,-0.345C0.542,-0.409 0.526,-0.458 0.495,-0.492C0.463,-0.527 0.418,-0.544 0.358,-0.544C0.319,-0.544 0.287,-0.536 0.262,-0.52C0.236,-0.503 0.217,-0.481 0.204,-0.452L0.196,-0.452L0.196,-0.533L0.074,-0.533L0.074,-0Z" style="fill-rule:nonzero;"/>
                    </g>
                    <g transform="matrix(13,0,0,13,416.112,289.251)">
                        <path d="M0.304,0.188C0.356,0.188 0.401,0.18 0.439,0.163C0.477,0.147 0.506,0.123 0.527,0.093C0.548,0.063 0.558,0.028 0.558,-0.013L0.558,-0.533L0.437,-0.533L0.437,-0.446L0.43,-0.446C0.42,-0.466 0.407,-0.483 0.391,-0.498C0.376,-0.512 0.357,-0.523 0.337,-0.531C0.316,-0.538 0.293,-0.542 0.268,-0.542C0.223,-0.542 0.183,-0.531 0.15,-0.509C0.117,-0.487 0.092,-0.457 0.074,-0.417C0.056,-0.378 0.047,-0.333 0.047,-0.282L0.047,-0.281C0.047,-0.23 0.056,-0.186 0.073,-0.147C0.091,-0.109 0.117,-0.079 0.149,-0.057C0.182,-0.036 0.221,-0.025 0.266,-0.025C0.291,-0.025 0.313,-0.028 0.334,-0.035C0.355,-0.042 0.373,-0.052 0.389,-0.065C0.405,-0.078 0.418,-0.095 0.429,-0.114L0.437,-0.114L0.437,-0.011C0.437,0.023 0.426,0.049 0.403,0.068C0.379,0.086 0.347,0.096 0.306,0.096C0.272,0.096 0.245,0.09 0.225,0.079C0.205,0.069 0.193,0.055 0.189,0.038L0.188,0.036L0.067,0.036L0.066,0.038C0.07,0.067 0.082,0.094 0.102,0.116C0.122,0.139 0.148,0.156 0.182,0.169C0.216,0.181 0.257,0.188 0.304,0.188ZM0.304,-0.122C0.275,-0.122 0.252,-0.128 0.232,-0.142C0.212,-0.155 0.197,-0.174 0.187,-0.198C0.176,-0.222 0.171,-0.249 0.171,-0.281L0.171,-0.282C0.171,-0.313 0.176,-0.341 0.187,-0.365C0.197,-0.389 0.212,-0.408 0.232,-0.421C0.252,-0.435 0.275,-0.442 0.304,-0.442C0.332,-0.442 0.356,-0.435 0.376,-0.421C0.396,-0.408 0.412,-0.389 0.423,-0.365C0.433,-0.341 0.439,-0.313 0.439,-0.282L0.439,-0.281C0.439,-0.249 0.433,-0.222 0.423,-0.198C0.412,-0.174 0.396,-0.155 0.376,-0.142C0.356,-0.128 0.332,-0.122 0.304,-0.122Z" style="fill-rule:nonzero;"/>
                    </g>
                </g>
                <g transform="matrix(0.286142,0.107427,-1.14804,0.0267756,1460.11,86.3702)">
                    <g transform="matrix(13,0,0,13,346.598,289.251)">
                        <path d="M0.262,-0L0.388,-0L0.388,-0.599L0.605,-0.599L0.605,-0.705L0.045,-0.705L0.045,-0.599L0.262,-0.599L0.262,-0Z" style="fill-rule:nonzero;"/>
                    </g>
                    <g transform="matrix(13,0,0,13,353.335,289.251)">
                        <path d="M0.305,0.011C0.358,0.011 0.404,-0 0.442,-0.023C0.48,-0.045 0.51,-0.077 0.53,-0.118C0.551,-0.16 0.561,-0.209 0.561,-0.266L0.561,-0.267C0.561,-0.325 0.551,-0.374 0.53,-0.415C0.509,-0.457 0.48,-0.489 0.442,-0.511C0.403,-0.533 0.358,-0.544 0.305,-0.544C0.252,-0.544 0.206,-0.533 0.168,-0.511C0.129,-0.488 0.1,-0.457 0.079,-0.415C0.058,-0.374 0.048,-0.325 0.048,-0.267L0.048,-0.266C0.048,-0.209 0.058,-0.16 0.079,-0.118C0.099,-0.077 0.129,-0.045 0.167,-0.023C0.206,-0 0.251,0.011 0.305,0.011ZM0.305,-0.088C0.276,-0.088 0.252,-0.095 0.233,-0.109C0.213,-0.123 0.198,-0.143 0.188,-0.17C0.177,-0.197 0.172,-0.229 0.172,-0.266L0.172,-0.267C0.172,-0.305 0.177,-0.337 0.188,-0.363C0.198,-0.39 0.213,-0.41 0.233,-0.424C0.253,-0.439 0.276,-0.446 0.305,-0.446C0.333,-0.446 0.357,-0.439 0.376,-0.424C0.396,-0.41 0.411,-0.39 0.421,-0.363C0.432,-0.337 0.437,-0.305 0.437,-0.267L0.437,-0.266C0.437,-0.229 0.432,-0.197 0.421,-0.17C0.411,-0.144 0.396,-0.123 0.376,-0.109C0.357,-0.095 0.333,-0.088 0.305,-0.088Z" style="fill-rule:nonzero;"/>
                    </g>
                    <g transform="matrix(13,0,0,13,361.132,289.251)">
                        <path d="M0.074,-0L0.196,-0L0.196,-0.325C0.196,-0.347 0.2,-0.367 0.209,-0.385C0.218,-0.402 0.23,-0.416 0.246,-0.426C0.262,-0.437 0.28,-0.442 0.3,-0.442C0.33,-0.442 0.353,-0.433 0.37,-0.416C0.387,-0.399 0.396,-0.376 0.396,-0.346L0.396,-0L0.518,-0L0.518,-0.333C0.518,-0.354 0.522,-0.372 0.53,-0.389C0.539,-0.405 0.551,-0.418 0.567,-0.427C0.582,-0.437 0.601,-0.442 0.622,-0.442C0.655,-0.442 0.679,-0.433 0.695,-0.416C0.711,-0.398 0.719,-0.372 0.719,-0.337L0.719,-0L0.84,-0L0.84,-0.367C0.84,-0.404 0.833,-0.436 0.82,-0.462C0.806,-0.488 0.786,-0.509 0.761,-0.523C0.735,-0.537 0.704,-0.544 0.668,-0.544C0.644,-0.544 0.621,-0.54 0.6,-0.532C0.578,-0.524 0.56,-0.513 0.544,-0.498C0.528,-0.484 0.515,-0.467 0.507,-0.448L0.498,-0.448C0.491,-0.467 0.48,-0.485 0.466,-0.499C0.452,-0.513 0.435,-0.524 0.416,-0.532C0.396,-0.54 0.375,-0.544 0.35,-0.544C0.315,-0.544 0.285,-0.536 0.26,-0.52C0.234,-0.503 0.216,-0.48 0.204,-0.451L0.196,-0.451L0.196,-0.533L0.074,-0.533L0.074,-0Z" style="fill-rule:nonzero;"/>
                    </g>
                    <g transform="matrix(13,0,0,13,376.034,289.251)">
                        <path d="M0.087,-0L0.213,-0L0.213,-0.265L0.353,-0.265L0.491,-0L0.635,-0L0.481,-0.284C0.523,-0.3 0.555,-0.325 0.579,-0.361C0.602,-0.397 0.613,-0.438 0.613,-0.485L0.613,-0.486C0.613,-0.531 0.604,-0.569 0.585,-0.602C0.565,-0.635 0.537,-0.66 0.501,-0.678C0.465,-0.696 0.422,-0.705 0.371,-0.705L0.087,-0.705L0.087,-0ZM0.213,-0.362L0.213,-0.603L0.356,-0.603C0.396,-0.603 0.427,-0.592 0.45,-0.571C0.473,-0.549 0.485,-0.52 0.485,-0.483L0.485,-0.482C0.485,-0.444 0.474,-0.415 0.451,-0.394C0.429,-0.373 0.398,-0.362 0.358,-0.362L0.213,-0.362Z" style="fill-rule:nonzero;"/>
                    </g>
                    <g transform="matrix(13,0,0,13,384.593,289.251)">
                        <path d="M0.22,0.009C0.243,0.009 0.265,0.006 0.285,-0.001C0.305,-0.007 0.323,-0.017 0.338,-0.029C0.354,-0.041 0.366,-0.056 0.376,-0.073L0.384,-0.073L0.384,-0L0.505,-0L0.505,-0.365C0.505,-0.402 0.496,-0.434 0.48,-0.461C0.463,-0.488 0.439,-0.509 0.407,-0.523C0.375,-0.537 0.336,-0.544 0.29,-0.544C0.248,-0.544 0.21,-0.538 0.178,-0.525C0.146,-0.513 0.12,-0.496 0.101,-0.473C0.081,-0.451 0.069,-0.425 0.065,-0.394L0.065,-0.39L0.179,-0.39L0.18,-0.392C0.186,-0.41 0.198,-0.423 0.216,-0.433C0.233,-0.443 0.256,-0.447 0.284,-0.447C0.317,-0.447 0.342,-0.44 0.359,-0.426C0.376,-0.412 0.384,-0.391 0.384,-0.365L0.384,-0.196C0.384,-0.175 0.379,-0.156 0.368,-0.139C0.357,-0.122 0.342,-0.109 0.322,-0.099C0.303,-0.089 0.281,-0.084 0.257,-0.084C0.23,-0.084 0.208,-0.091 0.19,-0.104C0.173,-0.116 0.164,-0.134 0.164,-0.157L0.164,-0.158C0.164,-0.18 0.172,-0.197 0.189,-0.209C0.205,-0.222 0.23,-0.229 0.264,-0.231L0.444,-0.243L0.444,-0.323L0.247,-0.311C0.182,-0.307 0.132,-0.291 0.097,-0.264C0.062,-0.237 0.044,-0.199 0.044,-0.152L0.044,-0.151C0.044,-0.118 0.052,-0.09 0.067,-0.066C0.082,-0.042 0.103,-0.024 0.13,-0.011C0.156,0.002 0.186,0.009 0.22,0.009Z" style="fill-rule:nonzero;"/>
                    </g>
                    <g transform="matrix(13,0,0,13,392.015,289.251)">
                        <path d="M0.284,0.003C0.296,0.003 0.307,0.002 0.318,0.001C0.329,-0 0.339,-0.001 0.347,-0.003L0.347,-0.097C0.34,-0.096 0.334,-0.095 0.328,-0.095C0.322,-0.095 0.315,-0.094 0.306,-0.094C0.281,-0.094 0.263,-0.101 0.252,-0.113C0.24,-0.125 0.235,-0.144 0.235,-0.171L0.235,-0.44L0.347,-0.44L0.347,-0.533L0.235,-0.533L0.235,-0.665L0.111,-0.665L0.111,-0.533L0.028,-0.533L0.028,-0.44L0.111,-0.44L0.111,-0.142C0.111,-0.09 0.125,-0.054 0.152,-0.031C0.179,-0.009 0.223,0.003 0.284,0.003Z" style="fill-rule:nonzero;"/>
                    </g>
                    <g transform="matrix(13,0,0,13,396.828,289.251)">
                        <path d="M0.079,-0L0.2,-0L0.2,-0.311C0.2,-0.338 0.205,-0.361 0.215,-0.38C0.224,-0.4 0.238,-0.415 0.255,-0.426C0.273,-0.436 0.294,-0.442 0.318,-0.442C0.355,-0.442 0.382,-0.431 0.399,-0.411C0.417,-0.39 0.425,-0.359 0.425,-0.317L0.425,-0L0.547,-0L0.547,-0.345C0.547,-0.388 0.54,-0.424 0.526,-0.453C0.511,-0.483 0.491,-0.505 0.463,-0.521C0.436,-0.536 0.403,-0.544 0.363,-0.544C0.324,-0.544 0.292,-0.536 0.267,-0.52C0.241,-0.503 0.222,-0.481 0.209,-0.452L0.2,-0.452L0.2,-0.74L0.079,-0.74L0.079,-0Z" style="fill-rule:nonzero;"/>
                    </g>
                    <g transform="matrix(13,0,0,13,404.733,289.251)">
                        <path d="M0.074,-0L0.196,-0L0.196,-0.325C0.196,-0.347 0.2,-0.367 0.209,-0.385C0.218,-0.402 0.23,-0.416 0.246,-0.426C0.262,-0.437 0.28,-0.442 0.3,-0.442C0.33,-0.442 0.353,-0.433 0.37,-0.416C0.387,-0.399 0.396,-0.376 0.396,-0.346L0.396,-0L0.518,-0L0.518,-0.333C0.518,-0.354 0.522,-0.372 0.53,-0.389C0.539,-0.405 0.551,-0.418 0.567,-0.427C0.582,-0.437 0.601,-0.442 0.622,-0.442C0.655,-0.442 0.679,-0.433 0.695,-0.416C0.711,-0.398 0.719,-0.372 0.719,-0.337L0.719,-0L0.84,-0L0.84,-0.367C0.84,-0.404 0.833,-0.436 0.82,-0.462C0.806,-0.488 0.786,-0.509 0.761,-0.523C0.735,-0.537 0.704,-0.544 0.668,-0.544C0.644,-0.544 0.621,-0.54 0.6,-0.532C0.578,-0.524 0.56,-0.513 0.544,-0.498C0.528,-0.484 0.515,-0.467 0.507,-0.448L0.498,-0.448C0.491,-0.467 0.48,-0.485 0.466,-0.499C0.452,-0.513 0.435,-0.524 0.416,-0.532C0.396,-0.54 0.375,-0.544 0.35,-0.544C0.315,-0.544 0.285,-0.536 0.26,-0.52C0.234,-0.503 0.216,-0.48 0.204,-0.451L0.196,-0.451L0.196,-0.533L0.074,-0.533L0.074,-0Z" style="fill-rule:nonzero;"/>
                    </g>
                    <g transform="matrix(13,0,0,13,416.072,289.251)">
                        <path d="M0.22,0.009C0.243,0.009 0.265,0.006 0.285,-0.001C0.305,-0.007 0.323,-0.017 0.338,-0.029C0.354,-0.041 0.366,-0.056 0.376,-0.073L0.384,-0.073L0.384,-0L0.505,-0L0.505,-0.365C0.505,-0.402 0.496,-0.434 0.48,-0.461C0.463,-0.488 0.439,-0.509 0.407,-0.523C0.375,-0.537 0.336,-0.544 0.29,-0.544C0.248,-0.544 0.21,-0.538 0.178,-0.525C0.146,-0.513 0.12,-0.496 0.101,-0.473C0.081,-0.451 0.069,-0.425 0.065,-0.394L0.065,-0.39L0.179,-0.39L0.18,-0.392C0.186,-0.41 0.198,-0.423 0.216,-0.433C0.233,-0.443 0.256,-0.447 0.284,-0.447C0.317,-0.447 0.342,-0.44 0.359,-0.426C0.376,-0.412 0.384,-0.391 0.384,-0.365L0.384,-0.196C0.384,-0.175 0.379,-0.156 0.368,-0.139C0.357,-0.122 0.342,-0.109 0.322,-0.099C0.303,-0.089 0.281,-0.084 0.257,-0.084C0.23,-0.084 0.208,-0.091 0.19,-0.104C0.173,-0.116 0.164,-0.134 0.164,-0.157L0.164,-0.158C0.164,-0.18 0.172,-0.197 0.189,-0.209C0.205,-0.222 0.23,-0.229 0.264,-0.231L0.444,-0.243L0.444,-0.323L0.247,-0.311C0.182,-0.307 0.132,-0.291 0.097,-0.264C0.062,-0.237 0.044,-0.199 0.044,-0.152L0.044,-0.151C0.044,-0.118 0.052,-0.09 0.067,-0.066C0.082,-0.042 0.103,-0.024 0.13,-0.011C0.156,0.002 0.186,0.009 0.22,0.009Z" style="fill-rule:nonzero;"/>
                    </g>
                    <g transform="matrix(13,0,0,13,423.495,289.251)">
                        <path d="M0.074,-0L0.196,-0L0.196,-0.311C0.196,-0.338 0.2,-0.361 0.21,-0.38C0.219,-0.4 0.233,-0.415 0.25,-0.426C0.268,-0.436 0.289,-0.442 0.313,-0.442C0.35,-0.442 0.377,-0.431 0.394,-0.411C0.412,-0.39 0.42,-0.359 0.42,-0.317L0.42,-0L0.542,-0L0.542,-0.345C0.542,-0.409 0.526,-0.458 0.495,-0.492C0.463,-0.527 0.418,-0.544 0.358,-0.544C0.319,-0.544 0.287,-0.536 0.262,-0.52C0.236,-0.503 0.217,-0.481 0.204,-0.452L0.196,-0.452L0.196,-0.533L0.074,-0.533L0.074,-0Z" style="fill-rule:nonzero;"/>
                    </g>
                </g>
                <g transform="matrix(-0.0450031,0.110633,-1.1823,-0.00421113,1565.64,95.3155)">
                    <g transform="matrix(13,0,0,13,346.598,289.251)">
                        <path d="M0.15,-0L0.388,-0C0.438,-0 0.482,-0.008 0.518,-0.024C0.554,-0.04 0.581,-0.063 0.601,-0.093C0.62,-0.123 0.63,-0.159 0.63,-0.2L0.63,-0.201C0.63,-0.231 0.623,-0.258 0.61,-0.283C0.596,-0.307 0.578,-0.327 0.554,-0.342C0.53,-0.357 0.502,-0.366 0.47,-0.369L0.47,-0.378C0.494,-0.382 0.515,-0.391 0.534,-0.405C0.553,-0.42 0.568,-0.438 0.579,-0.459C0.59,-0.481 0.596,-0.504 0.596,-0.528L0.596,-0.529C0.596,-0.565 0.587,-0.596 0.57,-0.623C0.553,-0.649 0.528,-0.669 0.496,-0.683C0.464,-0.697 0.426,-0.705 0.381,-0.705L0.15,-0.705L0.15,-0.607L0.35,-0.607C0.389,-0.607 0.418,-0.598 0.439,-0.581C0.461,-0.563 0.471,-0.539 0.471,-0.508L0.471,-0.507C0.471,-0.475 0.46,-0.45 0.436,-0.433C0.413,-0.416 0.379,-0.408 0.334,-0.408L0.15,-0.408L0.15,-0.318L0.354,-0.318C0.386,-0.318 0.413,-0.314 0.435,-0.306C0.457,-0.298 0.474,-0.286 0.485,-0.27C0.496,-0.253 0.502,-0.233 0.502,-0.21L0.502,-0.209C0.502,-0.173 0.49,-0.145 0.465,-0.126C0.441,-0.107 0.406,-0.098 0.359,-0.098L0.15,-0.098L0.15,-0ZM0.087,-0L0.213,-0L0.213,-0.705L0.087,-0.705L0.087,-0Z" style="fill-rule:nonzero;"/>
                    </g>
                    <g transform="matrix(13,0,0,13,355.354,289.251)">
                        <path d="M0.074,-0L0.196,-0L0.196,-0.31C0.196,-0.336 0.201,-0.358 0.212,-0.376C0.224,-0.395 0.239,-0.409 0.259,-0.419C0.279,-0.43 0.303,-0.435 0.33,-0.435C0.341,-0.435 0.351,-0.434 0.361,-0.433C0.371,-0.432 0.381,-0.43 0.391,-0.428L0.391,-0.537C0.385,-0.538 0.377,-0.54 0.368,-0.541C0.36,-0.542 0.351,-0.542 0.341,-0.542C0.306,-0.542 0.277,-0.534 0.253,-0.519C0.23,-0.503 0.213,-0.48 0.204,-0.452L0.196,-0.452L0.196,-0.533L0.074,-0.533L0.074,-0Z" style="fill-rule:nonzero;"/>
                    </g>
                    <g transform="matrix(13,0,0,13,359.939,289.251)">
                        <path d="M0.303,0.011C0.339,0.011 0.371,0.006 0.398,-0.003C0.425,-0.012 0.448,-0.025 0.467,-0.04C0.486,-0.055 0.502,-0.071 0.513,-0.089C0.524,-0.107 0.532,-0.124 0.536,-0.141L0.537,-0.146L0.422,-0.146L0.42,-0.143C0.417,-0.134 0.41,-0.126 0.4,-0.117C0.39,-0.108 0.377,-0.1 0.362,-0.094C0.346,-0.088 0.327,-0.085 0.305,-0.085C0.277,-0.085 0.253,-0.091 0.233,-0.103C0.212,-0.116 0.197,-0.134 0.186,-0.157C0.175,-0.18 0.169,-0.208 0.169,-0.241L0.169,-0.29C0.169,-0.324 0.175,-0.353 0.186,-0.377C0.197,-0.4 0.212,-0.418 0.232,-0.431C0.251,-0.443 0.273,-0.449 0.298,-0.449C0.323,-0.449 0.345,-0.443 0.364,-0.431C0.383,-0.419 0.398,-0.402 0.409,-0.378C0.42,-0.355 0.425,-0.325 0.425,-0.29L0.425,-0.242L0.483,-0.318L0.109,-0.318L0.109,-0.236L0.542,-0.236L0.542,-0.276C0.542,-0.33 0.532,-0.377 0.513,-0.417C0.493,-0.457 0.465,-0.488 0.428,-0.511C0.391,-0.533 0.348,-0.544 0.297,-0.544C0.246,-0.544 0.202,-0.533 0.165,-0.51C0.128,-0.486 0.099,-0.454 0.078,-0.413C0.058,-0.371 0.048,-0.322 0.048,-0.266L0.048,-0.265C0.048,-0.209 0.058,-0.16 0.078,-0.119C0.099,-0.077 0.128,-0.045 0.166,-0.023C0.204,-0.001 0.25,0.011 0.303,0.011Z" style="fill-rule:nonzero;"/>
                    </g>
                    <g transform="matrix(13,0,0,13,367.494,289.251)">
                        <path d="M0.074,-0L0.196,-0L0.196,-0.311C0.196,-0.338 0.2,-0.361 0.21,-0.38C0.219,-0.4 0.233,-0.415 0.25,-0.426C0.268,-0.436 0.289,-0.442 0.313,-0.442C0.35,-0.442 0.377,-0.431 0.394,-0.411C0.412,-0.39 0.42,-0.359 0.42,-0.317L0.42,-0L0.542,-0L0.542,-0.345C0.542,-0.409 0.526,-0.458 0.495,-0.492C0.463,-0.527 0.418,-0.544 0.358,-0.544C0.319,-0.544 0.287,-0.536 0.262,-0.52C0.236,-0.503 0.217,-0.481 0.204,-0.452L0.196,-0.452L0.196,-0.533L0.074,-0.533L0.074,-0Z" style="fill-rule:nonzero;"/>
                    </g>
                    <g transform="matrix(13,0,0,13,375.241,289.251)">
                        <path d="M0.284,0.003C0.296,0.003 0.307,0.002 0.318,0.001C0.329,-0 0.339,-0.001 0.347,-0.003L0.347,-0.097C0.34,-0.096 0.334,-0.095 0.328,-0.095C0.322,-0.095 0.315,-0.094 0.306,-0.094C0.281,-0.094 0.263,-0.101 0.252,-0.113C0.24,-0.125 0.235,-0.144 0.235,-0.171L0.235,-0.44L0.347,-0.44L0.347,-0.533L0.235,-0.533L0.235,-0.665L0.111,-0.665L0.111,-0.533L0.028,-0.533L0.028,-0.44L0.111,-0.44L0.111,-0.142C0.111,-0.09 0.125,-0.054 0.152,-0.031C0.179,-0.009 0.223,0.003 0.284,0.003Z" style="fill-rule:nonzero;"/>
                    </g>
                    <g transform="matrix(13,0,0,13,383.617,289.251)">
                        <path d="M0.262,0.018C0.334,0.018 0.391,-0.002 0.431,-0.042C0.471,-0.082 0.491,-0.138 0.491,-0.209L0.491,-0.705L0.365,-0.705L0.365,-0.21C0.365,-0.172 0.356,-0.143 0.339,-0.123C0.321,-0.103 0.295,-0.093 0.261,-0.093C0.24,-0.093 0.223,-0.097 0.209,-0.105C0.194,-0.113 0.183,-0.125 0.176,-0.139C0.168,-0.153 0.163,-0.169 0.162,-0.187L0.162,-0.191L0.039,-0.191L0.039,-0.186C0.041,-0.146 0.051,-0.11 0.069,-0.08C0.087,-0.049 0.112,-0.025 0.145,-0.008C0.177,0.009 0.217,0.018 0.262,0.018Z" style="fill-rule:nonzero;"/>
                    </g>
                    <g transform="matrix(13,0,0,13,390.951,289.251)">
                        <path d="M0.305,0.011C0.358,0.011 0.404,-0 0.442,-0.023C0.48,-0.045 0.51,-0.077 0.53,-0.118C0.551,-0.16 0.561,-0.209 0.561,-0.266L0.561,-0.267C0.561,-0.325 0.551,-0.374 0.53,-0.415C0.509,-0.457 0.48,-0.489 0.442,-0.511C0.403,-0.533 0.358,-0.544 0.305,-0.544C0.252,-0.544 0.206,-0.533 0.168,-0.511C0.129,-0.488 0.1,-0.457 0.079,-0.415C0.058,-0.374 0.048,-0.325 0.048,-0.267L0.048,-0.266C0.048,-0.209 0.058,-0.16 0.079,-0.118C0.099,-0.077 0.129,-0.045 0.167,-0.023C0.206,-0 0.251,0.011 0.305,0.011ZM0.305,-0.088C0.276,-0.088 0.252,-0.095 0.233,-0.109C0.213,-0.123 0.198,-0.143 0.188,-0.17C0.177,-0.197 0.172,-0.229 0.172,-0.266L0.172,-0.267C0.172,-0.305 0.177,-0.337 0.188,-0.363C0.198,-0.39 0.213,-0.41 0.233,-0.424C0.253,-0.439 0.276,-0.446 0.305,-0.446C0.333,-0.446 0.357,-0.439 0.376,-0.424C0.396,-0.41 0.411,-0.39 0.421,-0.363C0.432,-0.337 0.437,-0.305 0.437,-0.267L0.437,-0.266C0.437,-0.229 0.432,-0.197 0.421,-0.17C0.411,-0.144 0.396,-0.123 0.376,-0.109C0.357,-0.095 0.333,-0.088 0.305,-0.088Z" style="fill-rule:nonzero;"/>
                    </g>
                    <g transform="matrix(13,0,0,13,398.747,289.251)">
                        <path d="M0.074,-0L0.196,-0L0.196,-0.311C0.196,-0.338 0.2,-0.361 0.21,-0.38C0.219,-0.4 0.233,-0.415 0.25,-0.426C0.268,-0.436 0.289,-0.442 0.313,-0.442C0.35,-0.442 0.377,-0.431 0.394,-0.411C0.412,-0.39 0.42,-0.359 0.42,-0.317L0.42,-0L0.542,-0L0.542,-0.345C0.542,-0.409 0.526,-0.458 0.495,-0.492C0.463,-0.527 0.418,-0.544 0.358,-0.544C0.319,-0.544 0.287,-0.536 0.262,-0.52C0.236,-0.503 0.217,-0.481 0.204,-0.452L0.196,-0.452L0.196,-0.533L0.074,-0.533L0.074,-0Z" style="fill-rule:nonzero;"/>
                    </g>
                    <g transform="matrix(13,0,0,13,406.494,289.251)">
                        <path d="M0.303,0.011C0.339,0.011 0.371,0.006 0.398,-0.003C0.425,-0.012 0.448,-0.025 0.467,-0.04C0.486,-0.055 0.502,-0.071 0.513,-0.089C0.524,-0.107 0.532,-0.124 0.536,-0.141L0.537,-0.146L0.422,-0.146L0.42,-0.143C0.417,-0.134 0.41,-0.126 0.4,-0.117C0.39,-0.108 0.377,-0.1 0.362,-0.094C0.346,-0.088 0.327,-0.085 0.305,-0.085C0.277,-0.085 0.253,-0.091 0.233,-0.103C0.212,-0.116 0.197,-0.134 0.186,-0.157C0.175,-0.18 0.169,-0.208 0.169,-0.241L0.169,-0.29C0.169,-0.324 0.175,-0.353 0.186,-0.377C0.197,-0.4 0.212,-0.418 0.232,-0.431C0.251,-0.443 0.273,-0.449 0.298,-0.449C0.323,-0.449 0.345,-0.443 0.364,-0.431C0.383,-0.419 0.398,-0.402 0.409,-0.378C0.42,-0.355 0.425,-0.325 0.425,-0.29L0.425,-0.242L0.483,-0.318L0.109,-0.318L0.109,-0.236L0.542,-0.236L0.542,-0.276C0.542,-0.33 0.532,-0.377 0.513,-0.417C0.493,-0.457 0.465,-0.488 0.428,-0.511C0.391,-0.533 0.348,-0.544 0.297,-0.544C0.246,-0.544 0.202,-0.533 0.165,-0.51C0.128,-0.486 0.099,-0.454 0.078,-0.413C0.058,-0.371 0.048,-0.322 0.048,-0.266L0.048,-0.265C0.048,-0.209 0.058,-0.16 0.078,-0.119C0.099,-0.077 0.128,-0.045 0.166,-0.023C0.204,-0.001 0.25,0.011 0.303,0.011Z" style="fill-rule:nonzero;"/>
                    </g>
                    <g transform="matrix(13,0,0,13,414.049,289.251)">
                        <path d="M0.276,0.011C0.32,0.011 0.358,0.004 0.393,-0.01C0.427,-0.024 0.453,-0.044 0.473,-0.07C0.493,-0.095 0.502,-0.125 0.502,-0.159L0.502,-0.16C0.502,-0.199 0.49,-0.23 0.465,-0.253C0.44,-0.276 0.401,-0.293 0.349,-0.305L0.262,-0.324C0.233,-0.331 0.213,-0.339 0.201,-0.349C0.188,-0.359 0.182,-0.372 0.182,-0.388L0.182,-0.388C0.182,-0.402 0.186,-0.413 0.194,-0.423C0.202,-0.433 0.213,-0.441 0.227,-0.446C0.241,-0.452 0.257,-0.454 0.275,-0.454C0.304,-0.454 0.327,-0.449 0.344,-0.437C0.361,-0.425 0.372,-0.41 0.376,-0.393L0.377,-0.392L0.491,-0.392L0.491,-0.393C0.489,-0.422 0.478,-0.448 0.461,-0.471C0.443,-0.493 0.419,-0.511 0.388,-0.524C0.356,-0.538 0.319,-0.544 0.276,-0.544C0.234,-0.544 0.197,-0.537 0.165,-0.524C0.132,-0.51 0.107,-0.491 0.089,-0.466C0.071,-0.442 0.062,-0.414 0.062,-0.381L0.062,-0.381C0.062,-0.342 0.074,-0.31 0.099,-0.285C0.124,-0.261 0.161,-0.243 0.212,-0.232L0.298,-0.213C0.328,-0.206 0.349,-0.197 0.361,-0.187C0.374,-0.176 0.38,-0.163 0.38,-0.147L0.38,-0.146C0.38,-0.133 0.376,-0.121 0.367,-0.111C0.358,-0.101 0.346,-0.093 0.331,-0.088C0.316,-0.082 0.298,-0.079 0.278,-0.079C0.248,-0.079 0.224,-0.085 0.206,-0.097C0.188,-0.108 0.175,-0.123 0.169,-0.142L0.169,-0.143L0.048,-0.143L0.048,-0.142C0.051,-0.112 0.063,-0.085 0.081,-0.062C0.1,-0.04 0.126,-0.022 0.159,-0.009C0.192,0.004 0.231,0.011 0.276,0.011Z" style="fill-rule:nonzero;"/>
                    </g>
                </g>
            </g>
        </g>
    </g>
</svg>
